G04 #@! TF.GenerationSoftware,KiCad,Pcbnew,7.0.9*
G04 #@! TF.CreationDate,2024-01-04T10:04:32+09:00*
G04 #@! TF.ProjectId,PC8001-PSG,50433830-3031-42d5-9053-472e6b696361,rev?*
G04 #@! TF.SameCoordinates,Original*
G04 #@! TF.FileFunction,Legend,Top*
G04 #@! TF.FilePolarity,Positive*
%FSLAX46Y46*%
G04 Gerber Fmt 4.6, Leading zero omitted, Abs format (unit mm)*
G04 Created by KiCad (PCBNEW 7.0.9) date 2024-01-04 10:04:32*
%MOMM*%
%LPD*%
G01*
G04 APERTURE LIST*
%ADD10C,0.150000*%
%ADD11C,0.200000*%
%ADD12C,0.254000*%
%ADD13C,0.120000*%
G04 APERTURE END LIST*
D10*
X155641541Y-71069819D02*
X156308207Y-71069819D01*
X156308207Y-71069819D02*
X155879636Y-72069819D01*
X157117731Y-71403152D02*
X157117731Y-72069819D01*
X156879636Y-71022200D02*
X156641541Y-71736485D01*
X156641541Y-71736485D02*
X157260588Y-71736485D01*
X158117731Y-72069819D02*
X157641541Y-72069819D01*
X157641541Y-72069819D02*
X157641541Y-71069819D01*
X158403446Y-72022200D02*
X158546303Y-72069819D01*
X158546303Y-72069819D02*
X158784398Y-72069819D01*
X158784398Y-72069819D02*
X158879636Y-72022200D01*
X158879636Y-72022200D02*
X158927255Y-71974580D01*
X158927255Y-71974580D02*
X158974874Y-71879342D01*
X158974874Y-71879342D02*
X158974874Y-71784104D01*
X158974874Y-71784104D02*
X158927255Y-71688866D01*
X158927255Y-71688866D02*
X158879636Y-71641247D01*
X158879636Y-71641247D02*
X158784398Y-71593628D01*
X158784398Y-71593628D02*
X158593922Y-71546009D01*
X158593922Y-71546009D02*
X158498684Y-71498390D01*
X158498684Y-71498390D02*
X158451065Y-71450771D01*
X158451065Y-71450771D02*
X158403446Y-71355533D01*
X158403446Y-71355533D02*
X158403446Y-71260295D01*
X158403446Y-71260295D02*
X158451065Y-71165057D01*
X158451065Y-71165057D02*
X158498684Y-71117438D01*
X158498684Y-71117438D02*
X158593922Y-71069819D01*
X158593922Y-71069819D02*
X158832017Y-71069819D01*
X158832017Y-71069819D02*
X158974874Y-71117438D01*
X159308208Y-71069819D02*
X159974874Y-71069819D01*
X159974874Y-71069819D02*
X159546303Y-72069819D01*
X160784398Y-71403152D02*
X160784398Y-72069819D01*
X160546303Y-71022200D02*
X160308208Y-71736485D01*
X160308208Y-71736485D02*
X160927255Y-71736485D01*
X145789160Y-78822200D02*
X145932017Y-78869819D01*
X145932017Y-78869819D02*
X146170112Y-78869819D01*
X146170112Y-78869819D02*
X146265350Y-78822200D01*
X146265350Y-78822200D02*
X146312969Y-78774580D01*
X146312969Y-78774580D02*
X146360588Y-78679342D01*
X146360588Y-78679342D02*
X146360588Y-78584104D01*
X146360588Y-78584104D02*
X146312969Y-78488866D01*
X146312969Y-78488866D02*
X146265350Y-78441247D01*
X146265350Y-78441247D02*
X146170112Y-78393628D01*
X146170112Y-78393628D02*
X145979636Y-78346009D01*
X145979636Y-78346009D02*
X145884398Y-78298390D01*
X145884398Y-78298390D02*
X145836779Y-78250771D01*
X145836779Y-78250771D02*
X145789160Y-78155533D01*
X145789160Y-78155533D02*
X145789160Y-78060295D01*
X145789160Y-78060295D02*
X145836779Y-77965057D01*
X145836779Y-77965057D02*
X145884398Y-77917438D01*
X145884398Y-77917438D02*
X145979636Y-77869819D01*
X145979636Y-77869819D02*
X146217731Y-77869819D01*
X146217731Y-77869819D02*
X146360588Y-77917438D01*
X146074874Y-77726961D02*
X146074874Y-79012676D01*
X146741541Y-78584104D02*
X147217731Y-78584104D01*
X146646303Y-78869819D02*
X146979636Y-77869819D01*
X146979636Y-77869819D02*
X147312969Y-78869819D01*
X148074874Y-78203152D02*
X148074874Y-78869819D01*
X147836779Y-77822200D02*
X147598684Y-78536485D01*
X147598684Y-78536485D02*
X148217731Y-78536485D01*
X152789160Y-78822200D02*
X152932017Y-78869819D01*
X152932017Y-78869819D02*
X153170112Y-78869819D01*
X153170112Y-78869819D02*
X153265350Y-78822200D01*
X153265350Y-78822200D02*
X153312969Y-78774580D01*
X153312969Y-78774580D02*
X153360588Y-78679342D01*
X153360588Y-78679342D02*
X153360588Y-78584104D01*
X153360588Y-78584104D02*
X153312969Y-78488866D01*
X153312969Y-78488866D02*
X153265350Y-78441247D01*
X153265350Y-78441247D02*
X153170112Y-78393628D01*
X153170112Y-78393628D02*
X152979636Y-78346009D01*
X152979636Y-78346009D02*
X152884398Y-78298390D01*
X152884398Y-78298390D02*
X152836779Y-78250771D01*
X152836779Y-78250771D02*
X152789160Y-78155533D01*
X152789160Y-78155533D02*
X152789160Y-78060295D01*
X152789160Y-78060295D02*
X152836779Y-77965057D01*
X152836779Y-77965057D02*
X152884398Y-77917438D01*
X152884398Y-77917438D02*
X152979636Y-77869819D01*
X152979636Y-77869819D02*
X153217731Y-77869819D01*
X153217731Y-77869819D02*
X153360588Y-77917438D01*
X153074874Y-77726961D02*
X153074874Y-79012676D01*
X153741541Y-78584104D02*
X154217731Y-78584104D01*
X153646303Y-78869819D02*
X153979636Y-77869819D01*
X153979636Y-77869819D02*
X154312969Y-78869819D01*
X154836779Y-77869819D02*
X154932017Y-77869819D01*
X154932017Y-77869819D02*
X155027255Y-77917438D01*
X155027255Y-77917438D02*
X155074874Y-77965057D01*
X155074874Y-77965057D02*
X155122493Y-78060295D01*
X155122493Y-78060295D02*
X155170112Y-78250771D01*
X155170112Y-78250771D02*
X155170112Y-78488866D01*
X155170112Y-78488866D02*
X155122493Y-78679342D01*
X155122493Y-78679342D02*
X155074874Y-78774580D01*
X155074874Y-78774580D02*
X155027255Y-78822200D01*
X155027255Y-78822200D02*
X154932017Y-78869819D01*
X154932017Y-78869819D02*
X154836779Y-78869819D01*
X154836779Y-78869819D02*
X154741541Y-78822200D01*
X154741541Y-78822200D02*
X154693922Y-78774580D01*
X154693922Y-78774580D02*
X154646303Y-78679342D01*
X154646303Y-78679342D02*
X154598684Y-78488866D01*
X154598684Y-78488866D02*
X154598684Y-78250771D01*
X154598684Y-78250771D02*
X154646303Y-78060295D01*
X154646303Y-78060295D02*
X154693922Y-77965057D01*
X154693922Y-77965057D02*
X154741541Y-77917438D01*
X154741541Y-77917438D02*
X154836779Y-77869819D01*
X122589160Y-113184104D02*
X123065350Y-113184104D01*
X122493922Y-113469819D02*
X122827255Y-112469819D01*
X122827255Y-112469819D02*
X123160588Y-113469819D01*
X123684398Y-112993628D02*
X123684398Y-113469819D01*
X123351065Y-112469819D02*
X123684398Y-112993628D01*
X123684398Y-112993628D02*
X124017731Y-112469819D01*
X124351065Y-113088866D02*
X125112970Y-113088866D01*
X125493922Y-112469819D02*
X126112969Y-112469819D01*
X126112969Y-112469819D02*
X125779636Y-112850771D01*
X125779636Y-112850771D02*
X125922493Y-112850771D01*
X125922493Y-112850771D02*
X126017731Y-112898390D01*
X126017731Y-112898390D02*
X126065350Y-112946009D01*
X126065350Y-112946009D02*
X126112969Y-113041247D01*
X126112969Y-113041247D02*
X126112969Y-113279342D01*
X126112969Y-113279342D02*
X126065350Y-113374580D01*
X126065350Y-113374580D02*
X126017731Y-113422200D01*
X126017731Y-113422200D02*
X125922493Y-113469819D01*
X125922493Y-113469819D02*
X125636779Y-113469819D01*
X125636779Y-113469819D02*
X125541541Y-113422200D01*
X125541541Y-113422200D02*
X125493922Y-113374580D01*
X126541541Y-113088866D02*
X127303446Y-113088866D01*
X127922493Y-112898390D02*
X127827255Y-112850771D01*
X127827255Y-112850771D02*
X127779636Y-112803152D01*
X127779636Y-112803152D02*
X127732017Y-112707914D01*
X127732017Y-112707914D02*
X127732017Y-112660295D01*
X127732017Y-112660295D02*
X127779636Y-112565057D01*
X127779636Y-112565057D02*
X127827255Y-112517438D01*
X127827255Y-112517438D02*
X127922493Y-112469819D01*
X127922493Y-112469819D02*
X128112969Y-112469819D01*
X128112969Y-112469819D02*
X128208207Y-112517438D01*
X128208207Y-112517438D02*
X128255826Y-112565057D01*
X128255826Y-112565057D02*
X128303445Y-112660295D01*
X128303445Y-112660295D02*
X128303445Y-112707914D01*
X128303445Y-112707914D02*
X128255826Y-112803152D01*
X128255826Y-112803152D02*
X128208207Y-112850771D01*
X128208207Y-112850771D02*
X128112969Y-112898390D01*
X128112969Y-112898390D02*
X127922493Y-112898390D01*
X127922493Y-112898390D02*
X127827255Y-112946009D01*
X127827255Y-112946009D02*
X127779636Y-112993628D01*
X127779636Y-112993628D02*
X127732017Y-113088866D01*
X127732017Y-113088866D02*
X127732017Y-113279342D01*
X127732017Y-113279342D02*
X127779636Y-113374580D01*
X127779636Y-113374580D02*
X127827255Y-113422200D01*
X127827255Y-113422200D02*
X127922493Y-113469819D01*
X127922493Y-113469819D02*
X128112969Y-113469819D01*
X128112969Y-113469819D02*
X128208207Y-113422200D01*
X128208207Y-113422200D02*
X128255826Y-113374580D01*
X128255826Y-113374580D02*
X128303445Y-113279342D01*
X128303445Y-113279342D02*
X128303445Y-113088866D01*
X128303445Y-113088866D02*
X128255826Y-112993628D01*
X128255826Y-112993628D02*
X128208207Y-112946009D01*
X128208207Y-112946009D02*
X128112969Y-112898390D01*
X128779636Y-113469819D02*
X128970112Y-113469819D01*
X128970112Y-113469819D02*
X129065350Y-113422200D01*
X129065350Y-113422200D02*
X129112969Y-113374580D01*
X129112969Y-113374580D02*
X129208207Y-113231723D01*
X129208207Y-113231723D02*
X129255826Y-113041247D01*
X129255826Y-113041247D02*
X129255826Y-112660295D01*
X129255826Y-112660295D02*
X129208207Y-112565057D01*
X129208207Y-112565057D02*
X129160588Y-112517438D01*
X129160588Y-112517438D02*
X129065350Y-112469819D01*
X129065350Y-112469819D02*
X128874874Y-112469819D01*
X128874874Y-112469819D02*
X128779636Y-112517438D01*
X128779636Y-112517438D02*
X128732017Y-112565057D01*
X128732017Y-112565057D02*
X128684398Y-112660295D01*
X128684398Y-112660295D02*
X128684398Y-112898390D01*
X128684398Y-112898390D02*
X128732017Y-112993628D01*
X128732017Y-112993628D02*
X128779636Y-113041247D01*
X128779636Y-113041247D02*
X128874874Y-113088866D01*
X128874874Y-113088866D02*
X129065350Y-113088866D01*
X129065350Y-113088866D02*
X129160588Y-113041247D01*
X129160588Y-113041247D02*
X129208207Y-112993628D01*
X129208207Y-112993628D02*
X129255826Y-112898390D01*
X130208207Y-113469819D02*
X129636779Y-113469819D01*
X129922493Y-113469819D02*
X129922493Y-112469819D01*
X129922493Y-112469819D02*
X129827255Y-112612676D01*
X129827255Y-112612676D02*
X129732017Y-112707914D01*
X129732017Y-112707914D02*
X129636779Y-112755533D01*
X130827255Y-112469819D02*
X130922493Y-112469819D01*
X130922493Y-112469819D02*
X131017731Y-112517438D01*
X131017731Y-112517438D02*
X131065350Y-112565057D01*
X131065350Y-112565057D02*
X131112969Y-112660295D01*
X131112969Y-112660295D02*
X131160588Y-112850771D01*
X131160588Y-112850771D02*
X131160588Y-113088866D01*
X131160588Y-113088866D02*
X131112969Y-113279342D01*
X131112969Y-113279342D02*
X131065350Y-113374580D01*
X131065350Y-113374580D02*
X131017731Y-113422200D01*
X131017731Y-113422200D02*
X130922493Y-113469819D01*
X130922493Y-113469819D02*
X130827255Y-113469819D01*
X130827255Y-113469819D02*
X130732017Y-113422200D01*
X130732017Y-113422200D02*
X130684398Y-113374580D01*
X130684398Y-113374580D02*
X130636779Y-113279342D01*
X130636779Y-113279342D02*
X130589160Y-113088866D01*
X130589160Y-113088866D02*
X130589160Y-112850771D01*
X130589160Y-112850771D02*
X130636779Y-112660295D01*
X130636779Y-112660295D02*
X130684398Y-112565057D01*
X130684398Y-112565057D02*
X130732017Y-112517438D01*
X130732017Y-112517438D02*
X130827255Y-112469819D01*
X141289160Y-78822200D02*
X141432017Y-78869819D01*
X141432017Y-78869819D02*
X141670112Y-78869819D01*
X141670112Y-78869819D02*
X141765350Y-78822200D01*
X141765350Y-78822200D02*
X141812969Y-78774580D01*
X141812969Y-78774580D02*
X141860588Y-78679342D01*
X141860588Y-78679342D02*
X141860588Y-78584104D01*
X141860588Y-78584104D02*
X141812969Y-78488866D01*
X141812969Y-78488866D02*
X141765350Y-78441247D01*
X141765350Y-78441247D02*
X141670112Y-78393628D01*
X141670112Y-78393628D02*
X141479636Y-78346009D01*
X141479636Y-78346009D02*
X141384398Y-78298390D01*
X141384398Y-78298390D02*
X141336779Y-78250771D01*
X141336779Y-78250771D02*
X141289160Y-78155533D01*
X141289160Y-78155533D02*
X141289160Y-78060295D01*
X141289160Y-78060295D02*
X141336779Y-77965057D01*
X141336779Y-77965057D02*
X141384398Y-77917438D01*
X141384398Y-77917438D02*
X141479636Y-77869819D01*
X141479636Y-77869819D02*
X141717731Y-77869819D01*
X141717731Y-77869819D02*
X141860588Y-77917438D01*
X141574874Y-77726961D02*
X141574874Y-79012676D01*
X142241541Y-78584104D02*
X142717731Y-78584104D01*
X142146303Y-78869819D02*
X142479636Y-77869819D01*
X142479636Y-77869819D02*
X142812969Y-78869819D01*
X143336779Y-77869819D02*
X143432017Y-77869819D01*
X143432017Y-77869819D02*
X143527255Y-77917438D01*
X143527255Y-77917438D02*
X143574874Y-77965057D01*
X143574874Y-77965057D02*
X143622493Y-78060295D01*
X143622493Y-78060295D02*
X143670112Y-78250771D01*
X143670112Y-78250771D02*
X143670112Y-78488866D01*
X143670112Y-78488866D02*
X143622493Y-78679342D01*
X143622493Y-78679342D02*
X143574874Y-78774580D01*
X143574874Y-78774580D02*
X143527255Y-78822200D01*
X143527255Y-78822200D02*
X143432017Y-78869819D01*
X143432017Y-78869819D02*
X143336779Y-78869819D01*
X143336779Y-78869819D02*
X143241541Y-78822200D01*
X143241541Y-78822200D02*
X143193922Y-78774580D01*
X143193922Y-78774580D02*
X143146303Y-78679342D01*
X143146303Y-78679342D02*
X143098684Y-78488866D01*
X143098684Y-78488866D02*
X143098684Y-78250771D01*
X143098684Y-78250771D02*
X143146303Y-78060295D01*
X143146303Y-78060295D02*
X143193922Y-77965057D01*
X143193922Y-77965057D02*
X143241541Y-77917438D01*
X143241541Y-77917438D02*
X143336779Y-77869819D01*
X130541541Y-71069819D02*
X131208207Y-71069819D01*
X131208207Y-71069819D02*
X130779636Y-72069819D01*
X132017731Y-71403152D02*
X132017731Y-72069819D01*
X131779636Y-71022200D02*
X131541541Y-71736485D01*
X131541541Y-71736485D02*
X132160588Y-71736485D01*
X133017731Y-72069819D02*
X132541541Y-72069819D01*
X132541541Y-72069819D02*
X132541541Y-71069819D01*
X133303446Y-72022200D02*
X133446303Y-72069819D01*
X133446303Y-72069819D02*
X133684398Y-72069819D01*
X133684398Y-72069819D02*
X133779636Y-72022200D01*
X133779636Y-72022200D02*
X133827255Y-71974580D01*
X133827255Y-71974580D02*
X133874874Y-71879342D01*
X133874874Y-71879342D02*
X133874874Y-71784104D01*
X133874874Y-71784104D02*
X133827255Y-71688866D01*
X133827255Y-71688866D02*
X133779636Y-71641247D01*
X133779636Y-71641247D02*
X133684398Y-71593628D01*
X133684398Y-71593628D02*
X133493922Y-71546009D01*
X133493922Y-71546009D02*
X133398684Y-71498390D01*
X133398684Y-71498390D02*
X133351065Y-71450771D01*
X133351065Y-71450771D02*
X133303446Y-71355533D01*
X133303446Y-71355533D02*
X133303446Y-71260295D01*
X133303446Y-71260295D02*
X133351065Y-71165057D01*
X133351065Y-71165057D02*
X133398684Y-71117438D01*
X133398684Y-71117438D02*
X133493922Y-71069819D01*
X133493922Y-71069819D02*
X133732017Y-71069819D01*
X133732017Y-71069819D02*
X133874874Y-71117438D01*
X134827255Y-72069819D02*
X134255827Y-72069819D01*
X134541541Y-72069819D02*
X134541541Y-71069819D01*
X134541541Y-71069819D02*
X134446303Y-71212676D01*
X134446303Y-71212676D02*
X134351065Y-71307914D01*
X134351065Y-71307914D02*
X134255827Y-71355533D01*
X135160589Y-71069819D02*
X135779636Y-71069819D01*
X135779636Y-71069819D02*
X135446303Y-71450771D01*
X135446303Y-71450771D02*
X135589160Y-71450771D01*
X135589160Y-71450771D02*
X135684398Y-71498390D01*
X135684398Y-71498390D02*
X135732017Y-71546009D01*
X135732017Y-71546009D02*
X135779636Y-71641247D01*
X135779636Y-71641247D02*
X135779636Y-71879342D01*
X135779636Y-71879342D02*
X135732017Y-71974580D01*
X135732017Y-71974580D02*
X135684398Y-72022200D01*
X135684398Y-72022200D02*
X135589160Y-72069819D01*
X135589160Y-72069819D02*
X135303446Y-72069819D01*
X135303446Y-72069819D02*
X135208208Y-72022200D01*
X135208208Y-72022200D02*
X135160589Y-71974580D01*
X136351065Y-71498390D02*
X136255827Y-71450771D01*
X136255827Y-71450771D02*
X136208208Y-71403152D01*
X136208208Y-71403152D02*
X136160589Y-71307914D01*
X136160589Y-71307914D02*
X136160589Y-71260295D01*
X136160589Y-71260295D02*
X136208208Y-71165057D01*
X136208208Y-71165057D02*
X136255827Y-71117438D01*
X136255827Y-71117438D02*
X136351065Y-71069819D01*
X136351065Y-71069819D02*
X136541541Y-71069819D01*
X136541541Y-71069819D02*
X136636779Y-71117438D01*
X136636779Y-71117438D02*
X136684398Y-71165057D01*
X136684398Y-71165057D02*
X136732017Y-71260295D01*
X136732017Y-71260295D02*
X136732017Y-71307914D01*
X136732017Y-71307914D02*
X136684398Y-71403152D01*
X136684398Y-71403152D02*
X136636779Y-71450771D01*
X136636779Y-71450771D02*
X136541541Y-71498390D01*
X136541541Y-71498390D02*
X136351065Y-71498390D01*
X136351065Y-71498390D02*
X136255827Y-71546009D01*
X136255827Y-71546009D02*
X136208208Y-71593628D01*
X136208208Y-71593628D02*
X136160589Y-71688866D01*
X136160589Y-71688866D02*
X136160589Y-71879342D01*
X136160589Y-71879342D02*
X136208208Y-71974580D01*
X136208208Y-71974580D02*
X136255827Y-72022200D01*
X136255827Y-72022200D02*
X136351065Y-72069819D01*
X136351065Y-72069819D02*
X136541541Y-72069819D01*
X136541541Y-72069819D02*
X136636779Y-72022200D01*
X136636779Y-72022200D02*
X136684398Y-71974580D01*
X136684398Y-71974580D02*
X136732017Y-71879342D01*
X136732017Y-71879342D02*
X136732017Y-71688866D01*
X136732017Y-71688866D02*
X136684398Y-71593628D01*
X136684398Y-71593628D02*
X136636779Y-71546009D01*
X136636779Y-71546009D02*
X136541541Y-71498390D01*
X101841541Y-71069819D02*
X102508207Y-71069819D01*
X102508207Y-71069819D02*
X102079636Y-72069819D01*
X103317731Y-71403152D02*
X103317731Y-72069819D01*
X103079636Y-71022200D02*
X102841541Y-71736485D01*
X102841541Y-71736485D02*
X103460588Y-71736485D01*
X104317731Y-72069819D02*
X103841541Y-72069819D01*
X103841541Y-72069819D02*
X103841541Y-71069819D01*
X104603446Y-72022200D02*
X104746303Y-72069819D01*
X104746303Y-72069819D02*
X104984398Y-72069819D01*
X104984398Y-72069819D02*
X105079636Y-72022200D01*
X105079636Y-72022200D02*
X105127255Y-71974580D01*
X105127255Y-71974580D02*
X105174874Y-71879342D01*
X105174874Y-71879342D02*
X105174874Y-71784104D01*
X105174874Y-71784104D02*
X105127255Y-71688866D01*
X105127255Y-71688866D02*
X105079636Y-71641247D01*
X105079636Y-71641247D02*
X104984398Y-71593628D01*
X104984398Y-71593628D02*
X104793922Y-71546009D01*
X104793922Y-71546009D02*
X104698684Y-71498390D01*
X104698684Y-71498390D02*
X104651065Y-71450771D01*
X104651065Y-71450771D02*
X104603446Y-71355533D01*
X104603446Y-71355533D02*
X104603446Y-71260295D01*
X104603446Y-71260295D02*
X104651065Y-71165057D01*
X104651065Y-71165057D02*
X104698684Y-71117438D01*
X104698684Y-71117438D02*
X104793922Y-71069819D01*
X104793922Y-71069819D02*
X105032017Y-71069819D01*
X105032017Y-71069819D02*
X105174874Y-71117438D01*
X105508208Y-71069819D02*
X106127255Y-71069819D01*
X106127255Y-71069819D02*
X105793922Y-71450771D01*
X105793922Y-71450771D02*
X105936779Y-71450771D01*
X105936779Y-71450771D02*
X106032017Y-71498390D01*
X106032017Y-71498390D02*
X106079636Y-71546009D01*
X106079636Y-71546009D02*
X106127255Y-71641247D01*
X106127255Y-71641247D02*
X106127255Y-71879342D01*
X106127255Y-71879342D02*
X106079636Y-71974580D01*
X106079636Y-71974580D02*
X106032017Y-72022200D01*
X106032017Y-72022200D02*
X105936779Y-72069819D01*
X105936779Y-72069819D02*
X105651065Y-72069819D01*
X105651065Y-72069819D02*
X105555827Y-72022200D01*
X105555827Y-72022200D02*
X105508208Y-71974580D01*
X106508208Y-71165057D02*
X106555827Y-71117438D01*
X106555827Y-71117438D02*
X106651065Y-71069819D01*
X106651065Y-71069819D02*
X106889160Y-71069819D01*
X106889160Y-71069819D02*
X106984398Y-71117438D01*
X106984398Y-71117438D02*
X107032017Y-71165057D01*
X107032017Y-71165057D02*
X107079636Y-71260295D01*
X107079636Y-71260295D02*
X107079636Y-71355533D01*
X107079636Y-71355533D02*
X107032017Y-71498390D01*
X107032017Y-71498390D02*
X106460589Y-72069819D01*
X106460589Y-72069819D02*
X107079636Y-72069819D01*
X157289160Y-78822200D02*
X157432017Y-78869819D01*
X157432017Y-78869819D02*
X157670112Y-78869819D01*
X157670112Y-78869819D02*
X157765350Y-78822200D01*
X157765350Y-78822200D02*
X157812969Y-78774580D01*
X157812969Y-78774580D02*
X157860588Y-78679342D01*
X157860588Y-78679342D02*
X157860588Y-78584104D01*
X157860588Y-78584104D02*
X157812969Y-78488866D01*
X157812969Y-78488866D02*
X157765350Y-78441247D01*
X157765350Y-78441247D02*
X157670112Y-78393628D01*
X157670112Y-78393628D02*
X157479636Y-78346009D01*
X157479636Y-78346009D02*
X157384398Y-78298390D01*
X157384398Y-78298390D02*
X157336779Y-78250771D01*
X157336779Y-78250771D02*
X157289160Y-78155533D01*
X157289160Y-78155533D02*
X157289160Y-78060295D01*
X157289160Y-78060295D02*
X157336779Y-77965057D01*
X157336779Y-77965057D02*
X157384398Y-77917438D01*
X157384398Y-77917438D02*
X157479636Y-77869819D01*
X157479636Y-77869819D02*
X157717731Y-77869819D01*
X157717731Y-77869819D02*
X157860588Y-77917438D01*
X157574874Y-77726961D02*
X157574874Y-79012676D01*
X158241541Y-78584104D02*
X158717731Y-78584104D01*
X158146303Y-78869819D02*
X158479636Y-77869819D01*
X158479636Y-77869819D02*
X158812969Y-78869819D01*
X159574874Y-78203152D02*
X159574874Y-78869819D01*
X159336779Y-77822200D02*
X159098684Y-78536485D01*
X159098684Y-78536485D02*
X159717731Y-78536485D01*
D11*
X157744838Y-118392231D02*
X155744838Y-118392231D01*
X155744838Y-118392231D02*
X155744838Y-117630326D01*
X155744838Y-117630326D02*
X155840076Y-117439850D01*
X155840076Y-117439850D02*
X155935314Y-117344612D01*
X155935314Y-117344612D02*
X156125790Y-117249374D01*
X156125790Y-117249374D02*
X156411504Y-117249374D01*
X156411504Y-117249374D02*
X156601980Y-117344612D01*
X156601980Y-117344612D02*
X156697219Y-117439850D01*
X156697219Y-117439850D02*
X156792457Y-117630326D01*
X156792457Y-117630326D02*
X156792457Y-118392231D01*
X157649600Y-116487469D02*
X157744838Y-116201755D01*
X157744838Y-116201755D02*
X157744838Y-115725564D01*
X157744838Y-115725564D02*
X157649600Y-115535088D01*
X157649600Y-115535088D02*
X157554361Y-115439850D01*
X157554361Y-115439850D02*
X157363885Y-115344612D01*
X157363885Y-115344612D02*
X157173409Y-115344612D01*
X157173409Y-115344612D02*
X156982933Y-115439850D01*
X156982933Y-115439850D02*
X156887695Y-115535088D01*
X156887695Y-115535088D02*
X156792457Y-115725564D01*
X156792457Y-115725564D02*
X156697219Y-116106517D01*
X156697219Y-116106517D02*
X156601980Y-116296993D01*
X156601980Y-116296993D02*
X156506742Y-116392231D01*
X156506742Y-116392231D02*
X156316266Y-116487469D01*
X156316266Y-116487469D02*
X156125790Y-116487469D01*
X156125790Y-116487469D02*
X155935314Y-116392231D01*
X155935314Y-116392231D02*
X155840076Y-116296993D01*
X155840076Y-116296993D02*
X155744838Y-116106517D01*
X155744838Y-116106517D02*
X155744838Y-115630326D01*
X155744838Y-115630326D02*
X155840076Y-115344612D01*
X155840076Y-113439850D02*
X155744838Y-113630326D01*
X155744838Y-113630326D02*
X155744838Y-113916040D01*
X155744838Y-113916040D02*
X155840076Y-114201755D01*
X155840076Y-114201755D02*
X156030552Y-114392231D01*
X156030552Y-114392231D02*
X156221028Y-114487469D01*
X156221028Y-114487469D02*
X156601980Y-114582707D01*
X156601980Y-114582707D02*
X156887695Y-114582707D01*
X156887695Y-114582707D02*
X157268647Y-114487469D01*
X157268647Y-114487469D02*
X157459123Y-114392231D01*
X157459123Y-114392231D02*
X157649600Y-114201755D01*
X157649600Y-114201755D02*
X157744838Y-113916040D01*
X157744838Y-113916040D02*
X157744838Y-113725564D01*
X157744838Y-113725564D02*
X157649600Y-113439850D01*
X157649600Y-113439850D02*
X157554361Y-113344612D01*
X157554361Y-113344612D02*
X156887695Y-113344612D01*
X156887695Y-113344612D02*
X156887695Y-113725564D01*
X156697219Y-110296992D02*
X156792457Y-110011278D01*
X156792457Y-110011278D02*
X156887695Y-109916040D01*
X156887695Y-109916040D02*
X157078171Y-109820802D01*
X157078171Y-109820802D02*
X157363885Y-109820802D01*
X157363885Y-109820802D02*
X157554361Y-109916040D01*
X157554361Y-109916040D02*
X157649600Y-110011278D01*
X157649600Y-110011278D02*
X157744838Y-110201754D01*
X157744838Y-110201754D02*
X157744838Y-110963659D01*
X157744838Y-110963659D02*
X155744838Y-110963659D01*
X155744838Y-110963659D02*
X155744838Y-110296992D01*
X155744838Y-110296992D02*
X155840076Y-110106516D01*
X155840076Y-110106516D02*
X155935314Y-110011278D01*
X155935314Y-110011278D02*
X156125790Y-109916040D01*
X156125790Y-109916040D02*
X156316266Y-109916040D01*
X156316266Y-109916040D02*
X156506742Y-110011278D01*
X156506742Y-110011278D02*
X156601980Y-110106516D01*
X156601980Y-110106516D02*
X156697219Y-110296992D01*
X156697219Y-110296992D02*
X156697219Y-110963659D01*
X157744838Y-108677945D02*
X157649600Y-108868421D01*
X157649600Y-108868421D02*
X157554361Y-108963659D01*
X157554361Y-108963659D02*
X157363885Y-109058897D01*
X157363885Y-109058897D02*
X156792457Y-109058897D01*
X156792457Y-109058897D02*
X156601980Y-108963659D01*
X156601980Y-108963659D02*
X156506742Y-108868421D01*
X156506742Y-108868421D02*
X156411504Y-108677945D01*
X156411504Y-108677945D02*
X156411504Y-108392230D01*
X156411504Y-108392230D02*
X156506742Y-108201754D01*
X156506742Y-108201754D02*
X156601980Y-108106516D01*
X156601980Y-108106516D02*
X156792457Y-108011278D01*
X156792457Y-108011278D02*
X157363885Y-108011278D01*
X157363885Y-108011278D02*
X157554361Y-108106516D01*
X157554361Y-108106516D02*
X157649600Y-108201754D01*
X157649600Y-108201754D02*
X157744838Y-108392230D01*
X157744838Y-108392230D02*
X157744838Y-108677945D01*
X157744838Y-106296992D02*
X156697219Y-106296992D01*
X156697219Y-106296992D02*
X156506742Y-106392230D01*
X156506742Y-106392230D02*
X156411504Y-106582706D01*
X156411504Y-106582706D02*
X156411504Y-106963659D01*
X156411504Y-106963659D02*
X156506742Y-107154135D01*
X157649600Y-106296992D02*
X157744838Y-106487468D01*
X157744838Y-106487468D02*
X157744838Y-106963659D01*
X157744838Y-106963659D02*
X157649600Y-107154135D01*
X157649600Y-107154135D02*
X157459123Y-107249373D01*
X157459123Y-107249373D02*
X157268647Y-107249373D01*
X157268647Y-107249373D02*
X157078171Y-107154135D01*
X157078171Y-107154135D02*
X156982933Y-106963659D01*
X156982933Y-106963659D02*
X156982933Y-106487468D01*
X156982933Y-106487468D02*
X156887695Y-106296992D01*
X157744838Y-105344611D02*
X156411504Y-105344611D01*
X156792457Y-105344611D02*
X156601980Y-105249373D01*
X156601980Y-105249373D02*
X156506742Y-105154135D01*
X156506742Y-105154135D02*
X156411504Y-104963659D01*
X156411504Y-104963659D02*
X156411504Y-104773182D01*
X157744838Y-103249373D02*
X155744838Y-103249373D01*
X157649600Y-103249373D02*
X157744838Y-103439849D01*
X157744838Y-103439849D02*
X157744838Y-103820802D01*
X157744838Y-103820802D02*
X157649600Y-104011278D01*
X157649600Y-104011278D02*
X157554361Y-104106516D01*
X157554361Y-104106516D02*
X157363885Y-104201754D01*
X157363885Y-104201754D02*
X156792457Y-104201754D01*
X156792457Y-104201754D02*
X156601980Y-104106516D01*
X156601980Y-104106516D02*
X156506742Y-104011278D01*
X156506742Y-104011278D02*
X156411504Y-103820802D01*
X156411504Y-103820802D02*
X156411504Y-103439849D01*
X156411504Y-103439849D02*
X156506742Y-103249373D01*
X156411504Y-101058896D02*
X156411504Y-100296992D01*
X157744838Y-100773182D02*
X156030552Y-100773182D01*
X156030552Y-100773182D02*
X155840076Y-100677944D01*
X155840076Y-100677944D02*
X155744838Y-100487468D01*
X155744838Y-100487468D02*
X155744838Y-100296992D01*
X157744838Y-99344611D02*
X157649600Y-99535087D01*
X157649600Y-99535087D02*
X157554361Y-99630325D01*
X157554361Y-99630325D02*
X157363885Y-99725563D01*
X157363885Y-99725563D02*
X156792457Y-99725563D01*
X156792457Y-99725563D02*
X156601980Y-99630325D01*
X156601980Y-99630325D02*
X156506742Y-99535087D01*
X156506742Y-99535087D02*
X156411504Y-99344611D01*
X156411504Y-99344611D02*
X156411504Y-99058896D01*
X156411504Y-99058896D02*
X156506742Y-98868420D01*
X156506742Y-98868420D02*
X156601980Y-98773182D01*
X156601980Y-98773182D02*
X156792457Y-98677944D01*
X156792457Y-98677944D02*
X157363885Y-98677944D01*
X157363885Y-98677944D02*
X157554361Y-98773182D01*
X157554361Y-98773182D02*
X157649600Y-98868420D01*
X157649600Y-98868420D02*
X157744838Y-99058896D01*
X157744838Y-99058896D02*
X157744838Y-99344611D01*
X157744838Y-97820801D02*
X156411504Y-97820801D01*
X156792457Y-97820801D02*
X156601980Y-97725563D01*
X156601980Y-97725563D02*
X156506742Y-97630325D01*
X156506742Y-97630325D02*
X156411504Y-97439849D01*
X156411504Y-97439849D02*
X156411504Y-97249372D01*
X157744838Y-95058896D02*
X155744838Y-95058896D01*
X155744838Y-95058896D02*
X155744838Y-94296991D01*
X155744838Y-94296991D02*
X155840076Y-94106515D01*
X155840076Y-94106515D02*
X155935314Y-94011277D01*
X155935314Y-94011277D02*
X156125790Y-93916039D01*
X156125790Y-93916039D02*
X156411504Y-93916039D01*
X156411504Y-93916039D02*
X156601980Y-94011277D01*
X156601980Y-94011277D02*
X156697219Y-94106515D01*
X156697219Y-94106515D02*
X156792457Y-94296991D01*
X156792457Y-94296991D02*
X156792457Y-95058896D01*
X157554361Y-91916039D02*
X157649600Y-92011277D01*
X157649600Y-92011277D02*
X157744838Y-92296991D01*
X157744838Y-92296991D02*
X157744838Y-92487467D01*
X157744838Y-92487467D02*
X157649600Y-92773182D01*
X157649600Y-92773182D02*
X157459123Y-92963658D01*
X157459123Y-92963658D02*
X157268647Y-93058896D01*
X157268647Y-93058896D02*
X156887695Y-93154134D01*
X156887695Y-93154134D02*
X156601980Y-93154134D01*
X156601980Y-93154134D02*
X156221028Y-93058896D01*
X156221028Y-93058896D02*
X156030552Y-92963658D01*
X156030552Y-92963658D02*
X155840076Y-92773182D01*
X155840076Y-92773182D02*
X155744838Y-92487467D01*
X155744838Y-92487467D02*
X155744838Y-92296991D01*
X155744838Y-92296991D02*
X155840076Y-92011277D01*
X155840076Y-92011277D02*
X155935314Y-91916039D01*
X156601980Y-90773182D02*
X156506742Y-90963658D01*
X156506742Y-90963658D02*
X156411504Y-91058896D01*
X156411504Y-91058896D02*
X156221028Y-91154134D01*
X156221028Y-91154134D02*
X156125790Y-91154134D01*
X156125790Y-91154134D02*
X155935314Y-91058896D01*
X155935314Y-91058896D02*
X155840076Y-90963658D01*
X155840076Y-90963658D02*
X155744838Y-90773182D01*
X155744838Y-90773182D02*
X155744838Y-90392229D01*
X155744838Y-90392229D02*
X155840076Y-90201753D01*
X155840076Y-90201753D02*
X155935314Y-90106515D01*
X155935314Y-90106515D02*
X156125790Y-90011277D01*
X156125790Y-90011277D02*
X156221028Y-90011277D01*
X156221028Y-90011277D02*
X156411504Y-90106515D01*
X156411504Y-90106515D02*
X156506742Y-90201753D01*
X156506742Y-90201753D02*
X156601980Y-90392229D01*
X156601980Y-90392229D02*
X156601980Y-90773182D01*
X156601980Y-90773182D02*
X156697219Y-90963658D01*
X156697219Y-90963658D02*
X156792457Y-91058896D01*
X156792457Y-91058896D02*
X156982933Y-91154134D01*
X156982933Y-91154134D02*
X157363885Y-91154134D01*
X157363885Y-91154134D02*
X157554361Y-91058896D01*
X157554361Y-91058896D02*
X157649600Y-90963658D01*
X157649600Y-90963658D02*
X157744838Y-90773182D01*
X157744838Y-90773182D02*
X157744838Y-90392229D01*
X157744838Y-90392229D02*
X157649600Y-90201753D01*
X157649600Y-90201753D02*
X157554361Y-90106515D01*
X157554361Y-90106515D02*
X157363885Y-90011277D01*
X157363885Y-90011277D02*
X156982933Y-90011277D01*
X156982933Y-90011277D02*
X156792457Y-90106515D01*
X156792457Y-90106515D02*
X156697219Y-90201753D01*
X156697219Y-90201753D02*
X156601980Y-90392229D01*
X155744838Y-88773182D02*
X155744838Y-88582705D01*
X155744838Y-88582705D02*
X155840076Y-88392229D01*
X155840076Y-88392229D02*
X155935314Y-88296991D01*
X155935314Y-88296991D02*
X156125790Y-88201753D01*
X156125790Y-88201753D02*
X156506742Y-88106515D01*
X156506742Y-88106515D02*
X156982933Y-88106515D01*
X156982933Y-88106515D02*
X157363885Y-88201753D01*
X157363885Y-88201753D02*
X157554361Y-88296991D01*
X157554361Y-88296991D02*
X157649600Y-88392229D01*
X157649600Y-88392229D02*
X157744838Y-88582705D01*
X157744838Y-88582705D02*
X157744838Y-88773182D01*
X157744838Y-88773182D02*
X157649600Y-88963658D01*
X157649600Y-88963658D02*
X157554361Y-89058896D01*
X157554361Y-89058896D02*
X157363885Y-89154134D01*
X157363885Y-89154134D02*
X156982933Y-89249372D01*
X156982933Y-89249372D02*
X156506742Y-89249372D01*
X156506742Y-89249372D02*
X156125790Y-89154134D01*
X156125790Y-89154134D02*
X155935314Y-89058896D01*
X155935314Y-89058896D02*
X155840076Y-88963658D01*
X155840076Y-88963658D02*
X155744838Y-88773182D01*
X155744838Y-86868420D02*
X155744838Y-86677943D01*
X155744838Y-86677943D02*
X155840076Y-86487467D01*
X155840076Y-86487467D02*
X155935314Y-86392229D01*
X155935314Y-86392229D02*
X156125790Y-86296991D01*
X156125790Y-86296991D02*
X156506742Y-86201753D01*
X156506742Y-86201753D02*
X156982933Y-86201753D01*
X156982933Y-86201753D02*
X157363885Y-86296991D01*
X157363885Y-86296991D02*
X157554361Y-86392229D01*
X157554361Y-86392229D02*
X157649600Y-86487467D01*
X157649600Y-86487467D02*
X157744838Y-86677943D01*
X157744838Y-86677943D02*
X157744838Y-86868420D01*
X157744838Y-86868420D02*
X157649600Y-87058896D01*
X157649600Y-87058896D02*
X157554361Y-87154134D01*
X157554361Y-87154134D02*
X157363885Y-87249372D01*
X157363885Y-87249372D02*
X156982933Y-87344610D01*
X156982933Y-87344610D02*
X156506742Y-87344610D01*
X156506742Y-87344610D02*
X156125790Y-87249372D01*
X156125790Y-87249372D02*
X155935314Y-87154134D01*
X155935314Y-87154134D02*
X155840076Y-87058896D01*
X155840076Y-87058896D02*
X155744838Y-86868420D01*
X157744838Y-84296991D02*
X157744838Y-85439848D01*
X157744838Y-84868420D02*
X155744838Y-84868420D01*
X155744838Y-84868420D02*
X156030552Y-85058896D01*
X156030552Y-85058896D02*
X156221028Y-85249372D01*
X156221028Y-85249372D02*
X156316266Y-85439848D01*
D10*
X159869819Y-96163220D02*
X158869819Y-96163220D01*
X159869819Y-95591792D02*
X159298390Y-96020363D01*
X158869819Y-95591792D02*
X159441247Y-96163220D01*
X158869819Y-95163220D02*
X159679342Y-95163220D01*
X159679342Y-95163220D02*
X159774580Y-95115601D01*
X159774580Y-95115601D02*
X159822200Y-95067982D01*
X159822200Y-95067982D02*
X159869819Y-94972744D01*
X159869819Y-94972744D02*
X159869819Y-94782268D01*
X159869819Y-94782268D02*
X159822200Y-94687030D01*
X159822200Y-94687030D02*
X159774580Y-94639411D01*
X159774580Y-94639411D02*
X159679342Y-94591792D01*
X159679342Y-94591792D02*
X158869819Y-94591792D01*
X159869819Y-94115601D02*
X158869819Y-94115601D01*
X158869819Y-94115601D02*
X159869819Y-93544173D01*
X159869819Y-93544173D02*
X158869819Y-93544173D01*
X159869819Y-93067982D02*
X158869819Y-93067982D01*
X159488866Y-92591792D02*
X159488866Y-91829888D01*
X159869819Y-91353697D02*
X158869819Y-91353697D01*
X158869819Y-91353697D02*
X159869819Y-90782269D01*
X159869819Y-90782269D02*
X158869819Y-90782269D01*
X159346009Y-90306078D02*
X159346009Y-89972745D01*
X159869819Y-89829888D02*
X159869819Y-90306078D01*
X159869819Y-90306078D02*
X158869819Y-90306078D01*
X158869819Y-90306078D02*
X158869819Y-89829888D01*
X158869819Y-89544173D02*
X158869819Y-88972745D01*
X159869819Y-89258459D02*
X158869819Y-89258459D01*
X158965057Y-87925125D02*
X158917438Y-87877506D01*
X158917438Y-87877506D02*
X158869819Y-87782268D01*
X158869819Y-87782268D02*
X158869819Y-87544173D01*
X158869819Y-87544173D02*
X158917438Y-87448935D01*
X158917438Y-87448935D02*
X158965057Y-87401316D01*
X158965057Y-87401316D02*
X159060295Y-87353697D01*
X159060295Y-87353697D02*
X159155533Y-87353697D01*
X159155533Y-87353697D02*
X159298390Y-87401316D01*
X159298390Y-87401316D02*
X159869819Y-87972744D01*
X159869819Y-87972744D02*
X159869819Y-87353697D01*
X158869819Y-86734649D02*
X158869819Y-86639411D01*
X158869819Y-86639411D02*
X158917438Y-86544173D01*
X158917438Y-86544173D02*
X158965057Y-86496554D01*
X158965057Y-86496554D02*
X159060295Y-86448935D01*
X159060295Y-86448935D02*
X159250771Y-86401316D01*
X159250771Y-86401316D02*
X159488866Y-86401316D01*
X159488866Y-86401316D02*
X159679342Y-86448935D01*
X159679342Y-86448935D02*
X159774580Y-86496554D01*
X159774580Y-86496554D02*
X159822200Y-86544173D01*
X159822200Y-86544173D02*
X159869819Y-86639411D01*
X159869819Y-86639411D02*
X159869819Y-86734649D01*
X159869819Y-86734649D02*
X159822200Y-86829887D01*
X159822200Y-86829887D02*
X159774580Y-86877506D01*
X159774580Y-86877506D02*
X159679342Y-86925125D01*
X159679342Y-86925125D02*
X159488866Y-86972744D01*
X159488866Y-86972744D02*
X159250771Y-86972744D01*
X159250771Y-86972744D02*
X159060295Y-86925125D01*
X159060295Y-86925125D02*
X158965057Y-86877506D01*
X158965057Y-86877506D02*
X158917438Y-86829887D01*
X158917438Y-86829887D02*
X158869819Y-86734649D01*
X158965057Y-86020363D02*
X158917438Y-85972744D01*
X158917438Y-85972744D02*
X158869819Y-85877506D01*
X158869819Y-85877506D02*
X158869819Y-85639411D01*
X158869819Y-85639411D02*
X158917438Y-85544173D01*
X158917438Y-85544173D02*
X158965057Y-85496554D01*
X158965057Y-85496554D02*
X159060295Y-85448935D01*
X159060295Y-85448935D02*
X159155533Y-85448935D01*
X159155533Y-85448935D02*
X159298390Y-85496554D01*
X159298390Y-85496554D02*
X159869819Y-86067982D01*
X159869819Y-86067982D02*
X159869819Y-85448935D01*
X159203152Y-84591792D02*
X159869819Y-84591792D01*
X158822200Y-84829887D02*
X159536485Y-85067982D01*
X159536485Y-85067982D02*
X159536485Y-84448935D01*
X122589160Y-92684104D02*
X123065350Y-92684104D01*
X122493922Y-92969819D02*
X122827255Y-91969819D01*
X122827255Y-91969819D02*
X123160588Y-92969819D01*
X123684398Y-92493628D02*
X123684398Y-92969819D01*
X123351065Y-91969819D02*
X123684398Y-92493628D01*
X123684398Y-92493628D02*
X124017731Y-91969819D01*
X124351065Y-92588866D02*
X125112970Y-92588866D01*
X125493922Y-91969819D02*
X126112969Y-91969819D01*
X126112969Y-91969819D02*
X125779636Y-92350771D01*
X125779636Y-92350771D02*
X125922493Y-92350771D01*
X125922493Y-92350771D02*
X126017731Y-92398390D01*
X126017731Y-92398390D02*
X126065350Y-92446009D01*
X126065350Y-92446009D02*
X126112969Y-92541247D01*
X126112969Y-92541247D02*
X126112969Y-92779342D01*
X126112969Y-92779342D02*
X126065350Y-92874580D01*
X126065350Y-92874580D02*
X126017731Y-92922200D01*
X126017731Y-92922200D02*
X125922493Y-92969819D01*
X125922493Y-92969819D02*
X125636779Y-92969819D01*
X125636779Y-92969819D02*
X125541541Y-92922200D01*
X125541541Y-92922200D02*
X125493922Y-92874580D01*
X126541541Y-92588866D02*
X127303446Y-92588866D01*
X127922493Y-92398390D02*
X127827255Y-92350771D01*
X127827255Y-92350771D02*
X127779636Y-92303152D01*
X127779636Y-92303152D02*
X127732017Y-92207914D01*
X127732017Y-92207914D02*
X127732017Y-92160295D01*
X127732017Y-92160295D02*
X127779636Y-92065057D01*
X127779636Y-92065057D02*
X127827255Y-92017438D01*
X127827255Y-92017438D02*
X127922493Y-91969819D01*
X127922493Y-91969819D02*
X128112969Y-91969819D01*
X128112969Y-91969819D02*
X128208207Y-92017438D01*
X128208207Y-92017438D02*
X128255826Y-92065057D01*
X128255826Y-92065057D02*
X128303445Y-92160295D01*
X128303445Y-92160295D02*
X128303445Y-92207914D01*
X128303445Y-92207914D02*
X128255826Y-92303152D01*
X128255826Y-92303152D02*
X128208207Y-92350771D01*
X128208207Y-92350771D02*
X128112969Y-92398390D01*
X128112969Y-92398390D02*
X127922493Y-92398390D01*
X127922493Y-92398390D02*
X127827255Y-92446009D01*
X127827255Y-92446009D02*
X127779636Y-92493628D01*
X127779636Y-92493628D02*
X127732017Y-92588866D01*
X127732017Y-92588866D02*
X127732017Y-92779342D01*
X127732017Y-92779342D02*
X127779636Y-92874580D01*
X127779636Y-92874580D02*
X127827255Y-92922200D01*
X127827255Y-92922200D02*
X127922493Y-92969819D01*
X127922493Y-92969819D02*
X128112969Y-92969819D01*
X128112969Y-92969819D02*
X128208207Y-92922200D01*
X128208207Y-92922200D02*
X128255826Y-92874580D01*
X128255826Y-92874580D02*
X128303445Y-92779342D01*
X128303445Y-92779342D02*
X128303445Y-92588866D01*
X128303445Y-92588866D02*
X128255826Y-92493628D01*
X128255826Y-92493628D02*
X128208207Y-92446009D01*
X128208207Y-92446009D02*
X128112969Y-92398390D01*
X128779636Y-92969819D02*
X128970112Y-92969819D01*
X128970112Y-92969819D02*
X129065350Y-92922200D01*
X129065350Y-92922200D02*
X129112969Y-92874580D01*
X129112969Y-92874580D02*
X129208207Y-92731723D01*
X129208207Y-92731723D02*
X129255826Y-92541247D01*
X129255826Y-92541247D02*
X129255826Y-92160295D01*
X129255826Y-92160295D02*
X129208207Y-92065057D01*
X129208207Y-92065057D02*
X129160588Y-92017438D01*
X129160588Y-92017438D02*
X129065350Y-91969819D01*
X129065350Y-91969819D02*
X128874874Y-91969819D01*
X128874874Y-91969819D02*
X128779636Y-92017438D01*
X128779636Y-92017438D02*
X128732017Y-92065057D01*
X128732017Y-92065057D02*
X128684398Y-92160295D01*
X128684398Y-92160295D02*
X128684398Y-92398390D01*
X128684398Y-92398390D02*
X128732017Y-92493628D01*
X128732017Y-92493628D02*
X128779636Y-92541247D01*
X128779636Y-92541247D02*
X128874874Y-92588866D01*
X128874874Y-92588866D02*
X129065350Y-92588866D01*
X129065350Y-92588866D02*
X129160588Y-92541247D01*
X129160588Y-92541247D02*
X129208207Y-92493628D01*
X129208207Y-92493628D02*
X129255826Y-92398390D01*
X130208207Y-92969819D02*
X129636779Y-92969819D01*
X129922493Y-92969819D02*
X129922493Y-91969819D01*
X129922493Y-91969819D02*
X129827255Y-92112676D01*
X129827255Y-92112676D02*
X129732017Y-92207914D01*
X129732017Y-92207914D02*
X129636779Y-92255533D01*
X130827255Y-91969819D02*
X130922493Y-91969819D01*
X130922493Y-91969819D02*
X131017731Y-92017438D01*
X131017731Y-92017438D02*
X131065350Y-92065057D01*
X131065350Y-92065057D02*
X131112969Y-92160295D01*
X131112969Y-92160295D02*
X131160588Y-92350771D01*
X131160588Y-92350771D02*
X131160588Y-92588866D01*
X131160588Y-92588866D02*
X131112969Y-92779342D01*
X131112969Y-92779342D02*
X131065350Y-92874580D01*
X131065350Y-92874580D02*
X131017731Y-92922200D01*
X131017731Y-92922200D02*
X130922493Y-92969819D01*
X130922493Y-92969819D02*
X130827255Y-92969819D01*
X130827255Y-92969819D02*
X130732017Y-92922200D01*
X130732017Y-92922200D02*
X130684398Y-92874580D01*
X130684398Y-92874580D02*
X130636779Y-92779342D01*
X130636779Y-92779342D02*
X130589160Y-92588866D01*
X130589160Y-92588866D02*
X130589160Y-92350771D01*
X130589160Y-92350771D02*
X130636779Y-92160295D01*
X130636779Y-92160295D02*
X130684398Y-92065057D01*
X130684398Y-92065057D02*
X130732017Y-92017438D01*
X130732017Y-92017438D02*
X130827255Y-91969819D01*
X80741541Y-71069819D02*
X81408207Y-71069819D01*
X81408207Y-71069819D02*
X80979636Y-72069819D01*
X82217731Y-71403152D02*
X82217731Y-72069819D01*
X81979636Y-71022200D02*
X81741541Y-71736485D01*
X81741541Y-71736485D02*
X82360588Y-71736485D01*
X83217731Y-72069819D02*
X82741541Y-72069819D01*
X82741541Y-72069819D02*
X82741541Y-71069819D01*
X83503446Y-72022200D02*
X83646303Y-72069819D01*
X83646303Y-72069819D02*
X83884398Y-72069819D01*
X83884398Y-72069819D02*
X83979636Y-72022200D01*
X83979636Y-72022200D02*
X84027255Y-71974580D01*
X84027255Y-71974580D02*
X84074874Y-71879342D01*
X84074874Y-71879342D02*
X84074874Y-71784104D01*
X84074874Y-71784104D02*
X84027255Y-71688866D01*
X84027255Y-71688866D02*
X83979636Y-71641247D01*
X83979636Y-71641247D02*
X83884398Y-71593628D01*
X83884398Y-71593628D02*
X83693922Y-71546009D01*
X83693922Y-71546009D02*
X83598684Y-71498390D01*
X83598684Y-71498390D02*
X83551065Y-71450771D01*
X83551065Y-71450771D02*
X83503446Y-71355533D01*
X83503446Y-71355533D02*
X83503446Y-71260295D01*
X83503446Y-71260295D02*
X83551065Y-71165057D01*
X83551065Y-71165057D02*
X83598684Y-71117438D01*
X83598684Y-71117438D02*
X83693922Y-71069819D01*
X83693922Y-71069819D02*
X83932017Y-71069819D01*
X83932017Y-71069819D02*
X84074874Y-71117438D01*
X84693922Y-71069819D02*
X84789160Y-71069819D01*
X84789160Y-71069819D02*
X84884398Y-71117438D01*
X84884398Y-71117438D02*
X84932017Y-71165057D01*
X84932017Y-71165057D02*
X84979636Y-71260295D01*
X84979636Y-71260295D02*
X85027255Y-71450771D01*
X85027255Y-71450771D02*
X85027255Y-71688866D01*
X85027255Y-71688866D02*
X84979636Y-71879342D01*
X84979636Y-71879342D02*
X84932017Y-71974580D01*
X84932017Y-71974580D02*
X84884398Y-72022200D01*
X84884398Y-72022200D02*
X84789160Y-72069819D01*
X84789160Y-72069819D02*
X84693922Y-72069819D01*
X84693922Y-72069819D02*
X84598684Y-72022200D01*
X84598684Y-72022200D02*
X84551065Y-71974580D01*
X84551065Y-71974580D02*
X84503446Y-71879342D01*
X84503446Y-71879342D02*
X84455827Y-71688866D01*
X84455827Y-71688866D02*
X84455827Y-71450771D01*
X84455827Y-71450771D02*
X84503446Y-71260295D01*
X84503446Y-71260295D02*
X84551065Y-71165057D01*
X84551065Y-71165057D02*
X84598684Y-71117438D01*
X84598684Y-71117438D02*
X84693922Y-71069819D01*
X85408208Y-71165057D02*
X85455827Y-71117438D01*
X85455827Y-71117438D02*
X85551065Y-71069819D01*
X85551065Y-71069819D02*
X85789160Y-71069819D01*
X85789160Y-71069819D02*
X85884398Y-71117438D01*
X85884398Y-71117438D02*
X85932017Y-71165057D01*
X85932017Y-71165057D02*
X85979636Y-71260295D01*
X85979636Y-71260295D02*
X85979636Y-71355533D01*
X85979636Y-71355533D02*
X85932017Y-71498390D01*
X85932017Y-71498390D02*
X85360589Y-72069819D01*
X85360589Y-72069819D02*
X85979636Y-72069819D01*
D12*
X81034667Y-99037318D02*
X81034667Y-99944461D01*
X81034667Y-99944461D02*
X80974190Y-100125889D01*
X80974190Y-100125889D02*
X80853238Y-100246842D01*
X80853238Y-100246842D02*
X80671809Y-100307318D01*
X80671809Y-100307318D02*
X80550857Y-100307318D01*
X82304667Y-100307318D02*
X81578952Y-100307318D01*
X81941809Y-100307318D02*
X81941809Y-99037318D01*
X81941809Y-99037318D02*
X81820857Y-99218746D01*
X81820857Y-99218746D02*
X81699905Y-99339699D01*
X81699905Y-99339699D02*
X81578952Y-99400175D01*
D10*
X121859580Y-65366666D02*
X121907200Y-65414285D01*
X121907200Y-65414285D02*
X121954819Y-65557142D01*
X121954819Y-65557142D02*
X121954819Y-65652380D01*
X121954819Y-65652380D02*
X121907200Y-65795237D01*
X121907200Y-65795237D02*
X121811961Y-65890475D01*
X121811961Y-65890475D02*
X121716723Y-65938094D01*
X121716723Y-65938094D02*
X121526247Y-65985713D01*
X121526247Y-65985713D02*
X121383390Y-65985713D01*
X121383390Y-65985713D02*
X121192914Y-65938094D01*
X121192914Y-65938094D02*
X121097676Y-65890475D01*
X121097676Y-65890475D02*
X121002438Y-65795237D01*
X121002438Y-65795237D02*
X120954819Y-65652380D01*
X120954819Y-65652380D02*
X120954819Y-65557142D01*
X120954819Y-65557142D02*
X121002438Y-65414285D01*
X121002438Y-65414285D02*
X121050057Y-65366666D01*
X121954819Y-64414285D02*
X121954819Y-64985713D01*
X121954819Y-64699999D02*
X120954819Y-64699999D01*
X120954819Y-64699999D02*
X121097676Y-64795237D01*
X121097676Y-64795237D02*
X121192914Y-64890475D01*
X121192914Y-64890475D02*
X121240533Y-64985713D01*
X86754819Y-55648333D02*
X87469104Y-55648333D01*
X87469104Y-55648333D02*
X87611961Y-55695952D01*
X87611961Y-55695952D02*
X87707200Y-55791190D01*
X87707200Y-55791190D02*
X87754819Y-55934047D01*
X87754819Y-55934047D02*
X87754819Y-56029285D01*
X86850057Y-55219761D02*
X86802438Y-55172142D01*
X86802438Y-55172142D02*
X86754819Y-55076904D01*
X86754819Y-55076904D02*
X86754819Y-54838809D01*
X86754819Y-54838809D02*
X86802438Y-54743571D01*
X86802438Y-54743571D02*
X86850057Y-54695952D01*
X86850057Y-54695952D02*
X86945295Y-54648333D01*
X86945295Y-54648333D02*
X87040533Y-54648333D01*
X87040533Y-54648333D02*
X87183390Y-54695952D01*
X87183390Y-54695952D02*
X87754819Y-55267380D01*
X87754819Y-55267380D02*
X87754819Y-54648333D01*
X72954819Y-76561904D02*
X73764342Y-76561904D01*
X73764342Y-76561904D02*
X73859580Y-76514285D01*
X73859580Y-76514285D02*
X73907200Y-76466666D01*
X73907200Y-76466666D02*
X73954819Y-76371428D01*
X73954819Y-76371428D02*
X73954819Y-76180952D01*
X73954819Y-76180952D02*
X73907200Y-76085714D01*
X73907200Y-76085714D02*
X73859580Y-76038095D01*
X73859580Y-76038095D02*
X73764342Y-75990476D01*
X73764342Y-75990476D02*
X72954819Y-75990476D01*
X72954819Y-75085714D02*
X72954819Y-75276190D01*
X72954819Y-75276190D02*
X73002438Y-75371428D01*
X73002438Y-75371428D02*
X73050057Y-75419047D01*
X73050057Y-75419047D02*
X73192914Y-75514285D01*
X73192914Y-75514285D02*
X73383390Y-75561904D01*
X73383390Y-75561904D02*
X73764342Y-75561904D01*
X73764342Y-75561904D02*
X73859580Y-75514285D01*
X73859580Y-75514285D02*
X73907200Y-75466666D01*
X73907200Y-75466666D02*
X73954819Y-75371428D01*
X73954819Y-75371428D02*
X73954819Y-75180952D01*
X73954819Y-75180952D02*
X73907200Y-75085714D01*
X73907200Y-75085714D02*
X73859580Y-75038095D01*
X73859580Y-75038095D02*
X73764342Y-74990476D01*
X73764342Y-74990476D02*
X73526247Y-74990476D01*
X73526247Y-74990476D02*
X73431009Y-75038095D01*
X73431009Y-75038095D02*
X73383390Y-75085714D01*
X73383390Y-75085714D02*
X73335771Y-75180952D01*
X73335771Y-75180952D02*
X73335771Y-75371428D01*
X73335771Y-75371428D02*
X73383390Y-75466666D01*
X73383390Y-75466666D02*
X73431009Y-75514285D01*
X73431009Y-75514285D02*
X73526247Y-75561904D01*
X98724819Y-93471904D02*
X99534342Y-93471904D01*
X99534342Y-93471904D02*
X99629580Y-93424285D01*
X99629580Y-93424285D02*
X99677200Y-93376666D01*
X99677200Y-93376666D02*
X99724819Y-93281428D01*
X99724819Y-93281428D02*
X99724819Y-93090952D01*
X99724819Y-93090952D02*
X99677200Y-92995714D01*
X99677200Y-92995714D02*
X99629580Y-92948095D01*
X99629580Y-92948095D02*
X99534342Y-92900476D01*
X99534342Y-92900476D02*
X98724819Y-92900476D01*
X99058152Y-91995714D02*
X99724819Y-91995714D01*
X98677200Y-92233809D02*
X99391485Y-92471904D01*
X99391485Y-92471904D02*
X99391485Y-91852857D01*
X146754819Y-76461904D02*
X147564342Y-76461904D01*
X147564342Y-76461904D02*
X147659580Y-76414285D01*
X147659580Y-76414285D02*
X147707200Y-76366666D01*
X147707200Y-76366666D02*
X147754819Y-76271428D01*
X147754819Y-76271428D02*
X147754819Y-76080952D01*
X147754819Y-76080952D02*
X147707200Y-75985714D01*
X147707200Y-75985714D02*
X147659580Y-75938095D01*
X147659580Y-75938095D02*
X147564342Y-75890476D01*
X147564342Y-75890476D02*
X146754819Y-75890476D01*
X146850057Y-75461904D02*
X146802438Y-75414285D01*
X146802438Y-75414285D02*
X146754819Y-75319047D01*
X146754819Y-75319047D02*
X146754819Y-75080952D01*
X146754819Y-75080952D02*
X146802438Y-74985714D01*
X146802438Y-74985714D02*
X146850057Y-74938095D01*
X146850057Y-74938095D02*
X146945295Y-74890476D01*
X146945295Y-74890476D02*
X147040533Y-74890476D01*
X147040533Y-74890476D02*
X147183390Y-74938095D01*
X147183390Y-74938095D02*
X147754819Y-75509523D01*
X147754819Y-75509523D02*
X147754819Y-74890476D01*
X94654819Y-76561904D02*
X95464342Y-76561904D01*
X95464342Y-76561904D02*
X95559580Y-76514285D01*
X95559580Y-76514285D02*
X95607200Y-76466666D01*
X95607200Y-76466666D02*
X95654819Y-76371428D01*
X95654819Y-76371428D02*
X95654819Y-76180952D01*
X95654819Y-76180952D02*
X95607200Y-76085714D01*
X95607200Y-76085714D02*
X95559580Y-76038095D01*
X95559580Y-76038095D02*
X95464342Y-75990476D01*
X95464342Y-75990476D02*
X94654819Y-75990476D01*
X95654819Y-74990476D02*
X95654819Y-75561904D01*
X95654819Y-75276190D02*
X94654819Y-75276190D01*
X94654819Y-75276190D02*
X94797676Y-75371428D01*
X94797676Y-75371428D02*
X94892914Y-75466666D01*
X94892914Y-75466666D02*
X94940533Y-75561904D01*
X98724819Y-113791904D02*
X99534342Y-113791904D01*
X99534342Y-113791904D02*
X99629580Y-113744285D01*
X99629580Y-113744285D02*
X99677200Y-113696666D01*
X99677200Y-113696666D02*
X99724819Y-113601428D01*
X99724819Y-113601428D02*
X99724819Y-113410952D01*
X99724819Y-113410952D02*
X99677200Y-113315714D01*
X99677200Y-113315714D02*
X99629580Y-113268095D01*
X99629580Y-113268095D02*
X99534342Y-113220476D01*
X99534342Y-113220476D02*
X98724819Y-113220476D01*
X98724819Y-112839523D02*
X98724819Y-112172857D01*
X98724819Y-112172857D02*
X99724819Y-112601428D01*
X87463333Y-115854819D02*
X87130000Y-115378628D01*
X86891905Y-115854819D02*
X86891905Y-114854819D01*
X86891905Y-114854819D02*
X87272857Y-114854819D01*
X87272857Y-114854819D02*
X87368095Y-114902438D01*
X87368095Y-114902438D02*
X87415714Y-114950057D01*
X87415714Y-114950057D02*
X87463333Y-115045295D01*
X87463333Y-115045295D02*
X87463333Y-115188152D01*
X87463333Y-115188152D02*
X87415714Y-115283390D01*
X87415714Y-115283390D02*
X87368095Y-115331009D01*
X87368095Y-115331009D02*
X87272857Y-115378628D01*
X87272857Y-115378628D02*
X86891905Y-115378628D01*
X87844286Y-114950057D02*
X87891905Y-114902438D01*
X87891905Y-114902438D02*
X87987143Y-114854819D01*
X87987143Y-114854819D02*
X88225238Y-114854819D01*
X88225238Y-114854819D02*
X88320476Y-114902438D01*
X88320476Y-114902438D02*
X88368095Y-114950057D01*
X88368095Y-114950057D02*
X88415714Y-115045295D01*
X88415714Y-115045295D02*
X88415714Y-115140533D01*
X88415714Y-115140533D02*
X88368095Y-115283390D01*
X88368095Y-115283390D02*
X87796667Y-115854819D01*
X87796667Y-115854819D02*
X88415714Y-115854819D01*
X73759580Y-65066666D02*
X73807200Y-65114285D01*
X73807200Y-65114285D02*
X73854819Y-65257142D01*
X73854819Y-65257142D02*
X73854819Y-65352380D01*
X73854819Y-65352380D02*
X73807200Y-65495237D01*
X73807200Y-65495237D02*
X73711961Y-65590475D01*
X73711961Y-65590475D02*
X73616723Y-65638094D01*
X73616723Y-65638094D02*
X73426247Y-65685713D01*
X73426247Y-65685713D02*
X73283390Y-65685713D01*
X73283390Y-65685713D02*
X73092914Y-65638094D01*
X73092914Y-65638094D02*
X72997676Y-65590475D01*
X72997676Y-65590475D02*
X72902438Y-65495237D01*
X72902438Y-65495237D02*
X72854819Y-65352380D01*
X72854819Y-65352380D02*
X72854819Y-65257142D01*
X72854819Y-65257142D02*
X72902438Y-65114285D01*
X72902438Y-65114285D02*
X72950057Y-65066666D01*
X72854819Y-64733332D02*
X72854819Y-64066666D01*
X72854819Y-64066666D02*
X73854819Y-64495237D01*
X87633333Y-86854819D02*
X87300000Y-86378628D01*
X87061905Y-86854819D02*
X87061905Y-85854819D01*
X87061905Y-85854819D02*
X87442857Y-85854819D01*
X87442857Y-85854819D02*
X87538095Y-85902438D01*
X87538095Y-85902438D02*
X87585714Y-85950057D01*
X87585714Y-85950057D02*
X87633333Y-86045295D01*
X87633333Y-86045295D02*
X87633333Y-86188152D01*
X87633333Y-86188152D02*
X87585714Y-86283390D01*
X87585714Y-86283390D02*
X87538095Y-86331009D01*
X87538095Y-86331009D02*
X87442857Y-86378628D01*
X87442857Y-86378628D02*
X87061905Y-86378628D01*
X88585714Y-86854819D02*
X88014286Y-86854819D01*
X88300000Y-86854819D02*
X88300000Y-85854819D01*
X88300000Y-85854819D02*
X88204762Y-85997676D01*
X88204762Y-85997676D02*
X88109524Y-86092914D01*
X88109524Y-86092914D02*
X88014286Y-86140533D01*
X121354819Y-76761904D02*
X122164342Y-76761904D01*
X122164342Y-76761904D02*
X122259580Y-76714285D01*
X122259580Y-76714285D02*
X122307200Y-76666666D01*
X122307200Y-76666666D02*
X122354819Y-76571428D01*
X122354819Y-76571428D02*
X122354819Y-76380952D01*
X122354819Y-76380952D02*
X122307200Y-76285714D01*
X122307200Y-76285714D02*
X122259580Y-76238095D01*
X122259580Y-76238095D02*
X122164342Y-76190476D01*
X122164342Y-76190476D02*
X121354819Y-76190476D01*
X121354819Y-75809523D02*
X121354819Y-75190476D01*
X121354819Y-75190476D02*
X121735771Y-75523809D01*
X121735771Y-75523809D02*
X121735771Y-75380952D01*
X121735771Y-75380952D02*
X121783390Y-75285714D01*
X121783390Y-75285714D02*
X121831009Y-75238095D01*
X121831009Y-75238095D02*
X121926247Y-75190476D01*
X121926247Y-75190476D02*
X122164342Y-75190476D01*
X122164342Y-75190476D02*
X122259580Y-75238095D01*
X122259580Y-75238095D02*
X122307200Y-75285714D01*
X122307200Y-75285714D02*
X122354819Y-75380952D01*
X122354819Y-75380952D02*
X122354819Y-75666666D01*
X122354819Y-75666666D02*
X122307200Y-75761904D01*
X122307200Y-75761904D02*
X122259580Y-75809523D01*
X139389819Y-81633333D02*
X140104104Y-81633333D01*
X140104104Y-81633333D02*
X140246961Y-81680952D01*
X140246961Y-81680952D02*
X140342200Y-81776190D01*
X140342200Y-81776190D02*
X140389819Y-81919047D01*
X140389819Y-81919047D02*
X140389819Y-82014285D01*
X140389819Y-81157142D02*
X139389819Y-81157142D01*
X139389819Y-81157142D02*
X139389819Y-80776190D01*
X139389819Y-80776190D02*
X139437438Y-80680952D01*
X139437438Y-80680952D02*
X139485057Y-80633333D01*
X139485057Y-80633333D02*
X139580295Y-80585714D01*
X139580295Y-80585714D02*
X139723152Y-80585714D01*
X139723152Y-80585714D02*
X139818390Y-80633333D01*
X139818390Y-80633333D02*
X139866009Y-80680952D01*
X139866009Y-80680952D02*
X139913628Y-80776190D01*
X139913628Y-80776190D02*
X139913628Y-81157142D01*
X140389819Y-79633333D02*
X140389819Y-80204761D01*
X140389819Y-79919047D02*
X139389819Y-79919047D01*
X139389819Y-79919047D02*
X139532676Y-80014285D01*
X139532676Y-80014285D02*
X139627914Y-80109523D01*
X139627914Y-80109523D02*
X139675533Y-80204761D01*
X98233333Y-103259580D02*
X98185714Y-103307200D01*
X98185714Y-103307200D02*
X98042857Y-103354819D01*
X98042857Y-103354819D02*
X97947619Y-103354819D01*
X97947619Y-103354819D02*
X97804762Y-103307200D01*
X97804762Y-103307200D02*
X97709524Y-103211961D01*
X97709524Y-103211961D02*
X97661905Y-103116723D01*
X97661905Y-103116723D02*
X97614286Y-102926247D01*
X97614286Y-102926247D02*
X97614286Y-102783390D01*
X97614286Y-102783390D02*
X97661905Y-102592914D01*
X97661905Y-102592914D02*
X97709524Y-102497676D01*
X97709524Y-102497676D02*
X97804762Y-102402438D01*
X97804762Y-102402438D02*
X97947619Y-102354819D01*
X97947619Y-102354819D02*
X98042857Y-102354819D01*
X98042857Y-102354819D02*
X98185714Y-102402438D01*
X98185714Y-102402438D02*
X98233333Y-102450057D01*
X98566667Y-102354819D02*
X99185714Y-102354819D01*
X99185714Y-102354819D02*
X98852381Y-102735771D01*
X98852381Y-102735771D02*
X98995238Y-102735771D01*
X98995238Y-102735771D02*
X99090476Y-102783390D01*
X99090476Y-102783390D02*
X99138095Y-102831009D01*
X99138095Y-102831009D02*
X99185714Y-102926247D01*
X99185714Y-102926247D02*
X99185714Y-103164342D01*
X99185714Y-103164342D02*
X99138095Y-103259580D01*
X99138095Y-103259580D02*
X99090476Y-103307200D01*
X99090476Y-103307200D02*
X98995238Y-103354819D01*
X98995238Y-103354819D02*
X98709524Y-103354819D01*
X98709524Y-103354819D02*
X98614286Y-103307200D01*
X98614286Y-103307200D02*
X98566667Y-103259580D01*
X87333333Y-90754819D02*
X87000000Y-90278628D01*
X86761905Y-90754819D02*
X86761905Y-89754819D01*
X86761905Y-89754819D02*
X87142857Y-89754819D01*
X87142857Y-89754819D02*
X87238095Y-89802438D01*
X87238095Y-89802438D02*
X87285714Y-89850057D01*
X87285714Y-89850057D02*
X87333333Y-89945295D01*
X87333333Y-89945295D02*
X87333333Y-90088152D01*
X87333333Y-90088152D02*
X87285714Y-90183390D01*
X87285714Y-90183390D02*
X87238095Y-90231009D01*
X87238095Y-90231009D02*
X87142857Y-90278628D01*
X87142857Y-90278628D02*
X86761905Y-90278628D01*
X87666667Y-89754819D02*
X88285714Y-89754819D01*
X88285714Y-89754819D02*
X87952381Y-90135771D01*
X87952381Y-90135771D02*
X88095238Y-90135771D01*
X88095238Y-90135771D02*
X88190476Y-90183390D01*
X88190476Y-90183390D02*
X88238095Y-90231009D01*
X88238095Y-90231009D02*
X88285714Y-90326247D01*
X88285714Y-90326247D02*
X88285714Y-90564342D01*
X88285714Y-90564342D02*
X88238095Y-90659580D01*
X88238095Y-90659580D02*
X88190476Y-90707200D01*
X88190476Y-90707200D02*
X88095238Y-90754819D01*
X88095238Y-90754819D02*
X87809524Y-90754819D01*
X87809524Y-90754819D02*
X87714286Y-90707200D01*
X87714286Y-90707200D02*
X87666667Y-90659580D01*
X147259580Y-65266666D02*
X147307200Y-65314285D01*
X147307200Y-65314285D02*
X147354819Y-65457142D01*
X147354819Y-65457142D02*
X147354819Y-65552380D01*
X147354819Y-65552380D02*
X147307200Y-65695237D01*
X147307200Y-65695237D02*
X147211961Y-65790475D01*
X147211961Y-65790475D02*
X147116723Y-65838094D01*
X147116723Y-65838094D02*
X146926247Y-65885713D01*
X146926247Y-65885713D02*
X146783390Y-65885713D01*
X146783390Y-65885713D02*
X146592914Y-65838094D01*
X146592914Y-65838094D02*
X146497676Y-65790475D01*
X146497676Y-65790475D02*
X146402438Y-65695237D01*
X146402438Y-65695237D02*
X146354819Y-65552380D01*
X146354819Y-65552380D02*
X146354819Y-65457142D01*
X146354819Y-65457142D02*
X146402438Y-65314285D01*
X146402438Y-65314285D02*
X146450057Y-65266666D01*
X146354819Y-64409523D02*
X146354819Y-64599999D01*
X146354819Y-64599999D02*
X146402438Y-64695237D01*
X146402438Y-64695237D02*
X146450057Y-64742856D01*
X146450057Y-64742856D02*
X146592914Y-64838094D01*
X146592914Y-64838094D02*
X146783390Y-64885713D01*
X146783390Y-64885713D02*
X147164342Y-64885713D01*
X147164342Y-64885713D02*
X147259580Y-64838094D01*
X147259580Y-64838094D02*
X147307200Y-64790475D01*
X147307200Y-64790475D02*
X147354819Y-64695237D01*
X147354819Y-64695237D02*
X147354819Y-64504761D01*
X147354819Y-64504761D02*
X147307200Y-64409523D01*
X147307200Y-64409523D02*
X147259580Y-64361904D01*
X147259580Y-64361904D02*
X147164342Y-64314285D01*
X147164342Y-64314285D02*
X146926247Y-64314285D01*
X146926247Y-64314285D02*
X146831009Y-64361904D01*
X146831009Y-64361904D02*
X146783390Y-64409523D01*
X146783390Y-64409523D02*
X146735771Y-64504761D01*
X146735771Y-64504761D02*
X146735771Y-64695237D01*
X146735771Y-64695237D02*
X146783390Y-64790475D01*
X146783390Y-64790475D02*
X146831009Y-64838094D01*
X146831009Y-64838094D02*
X146926247Y-64885713D01*
X72809580Y-89086666D02*
X72857200Y-89134285D01*
X72857200Y-89134285D02*
X72904819Y-89277142D01*
X72904819Y-89277142D02*
X72904819Y-89372380D01*
X72904819Y-89372380D02*
X72857200Y-89515237D01*
X72857200Y-89515237D02*
X72761961Y-89610475D01*
X72761961Y-89610475D02*
X72666723Y-89658094D01*
X72666723Y-89658094D02*
X72476247Y-89705713D01*
X72476247Y-89705713D02*
X72333390Y-89705713D01*
X72333390Y-89705713D02*
X72142914Y-89658094D01*
X72142914Y-89658094D02*
X72047676Y-89610475D01*
X72047676Y-89610475D02*
X71952438Y-89515237D01*
X71952438Y-89515237D02*
X71904819Y-89372380D01*
X71904819Y-89372380D02*
X71904819Y-89277142D01*
X71904819Y-89277142D02*
X71952438Y-89134285D01*
X71952438Y-89134285D02*
X72000057Y-89086666D01*
X72238152Y-88229523D02*
X72904819Y-88229523D01*
X71857200Y-88467618D02*
X72571485Y-88705713D01*
X72571485Y-88705713D02*
X72571485Y-88086666D01*
X165196666Y-88704819D02*
X165196666Y-89419104D01*
X165196666Y-89419104D02*
X165149047Y-89561961D01*
X165149047Y-89561961D02*
X165053809Y-89657200D01*
X165053809Y-89657200D02*
X164910952Y-89704819D01*
X164910952Y-89704819D02*
X164815714Y-89704819D01*
X165577619Y-88704819D02*
X166196666Y-88704819D01*
X166196666Y-88704819D02*
X165863333Y-89085771D01*
X165863333Y-89085771D02*
X166006190Y-89085771D01*
X166006190Y-89085771D02*
X166101428Y-89133390D01*
X166101428Y-89133390D02*
X166149047Y-89181009D01*
X166149047Y-89181009D02*
X166196666Y-89276247D01*
X166196666Y-89276247D02*
X166196666Y-89514342D01*
X166196666Y-89514342D02*
X166149047Y-89609580D01*
X166149047Y-89609580D02*
X166101428Y-89657200D01*
X166101428Y-89657200D02*
X166006190Y-89704819D01*
X166006190Y-89704819D02*
X165720476Y-89704819D01*
X165720476Y-89704819D02*
X165625238Y-89657200D01*
X165625238Y-89657200D02*
X165577619Y-89609580D01*
X87333333Y-112154819D02*
X87000000Y-111678628D01*
X86761905Y-112154819D02*
X86761905Y-111154819D01*
X86761905Y-111154819D02*
X87142857Y-111154819D01*
X87142857Y-111154819D02*
X87238095Y-111202438D01*
X87238095Y-111202438D02*
X87285714Y-111250057D01*
X87285714Y-111250057D02*
X87333333Y-111345295D01*
X87333333Y-111345295D02*
X87333333Y-111488152D01*
X87333333Y-111488152D02*
X87285714Y-111583390D01*
X87285714Y-111583390D02*
X87238095Y-111631009D01*
X87238095Y-111631009D02*
X87142857Y-111678628D01*
X87142857Y-111678628D02*
X86761905Y-111678628D01*
X88190476Y-111488152D02*
X88190476Y-112154819D01*
X87952381Y-111107200D02*
X87714286Y-111821485D01*
X87714286Y-111821485D02*
X88333333Y-111821485D01*
X150834819Y-81633333D02*
X151549104Y-81633333D01*
X151549104Y-81633333D02*
X151691961Y-81680952D01*
X151691961Y-81680952D02*
X151787200Y-81776190D01*
X151787200Y-81776190D02*
X151834819Y-81919047D01*
X151834819Y-81919047D02*
X151834819Y-82014285D01*
X151834819Y-81157142D02*
X150834819Y-81157142D01*
X150834819Y-81157142D02*
X150834819Y-80776190D01*
X150834819Y-80776190D02*
X150882438Y-80680952D01*
X150882438Y-80680952D02*
X150930057Y-80633333D01*
X150930057Y-80633333D02*
X151025295Y-80585714D01*
X151025295Y-80585714D02*
X151168152Y-80585714D01*
X151168152Y-80585714D02*
X151263390Y-80633333D01*
X151263390Y-80633333D02*
X151311009Y-80680952D01*
X151311009Y-80680952D02*
X151358628Y-80776190D01*
X151358628Y-80776190D02*
X151358628Y-81157142D01*
X150930057Y-80204761D02*
X150882438Y-80157142D01*
X150882438Y-80157142D02*
X150834819Y-80061904D01*
X150834819Y-80061904D02*
X150834819Y-79823809D01*
X150834819Y-79823809D02*
X150882438Y-79728571D01*
X150882438Y-79728571D02*
X150930057Y-79680952D01*
X150930057Y-79680952D02*
X151025295Y-79633333D01*
X151025295Y-79633333D02*
X151120533Y-79633333D01*
X151120533Y-79633333D02*
X151263390Y-79680952D01*
X151263390Y-79680952D02*
X151834819Y-80252380D01*
X151834819Y-80252380D02*
X151834819Y-79633333D01*
X95359580Y-65166666D02*
X95407200Y-65214285D01*
X95407200Y-65214285D02*
X95454819Y-65357142D01*
X95454819Y-65357142D02*
X95454819Y-65452380D01*
X95454819Y-65452380D02*
X95407200Y-65595237D01*
X95407200Y-65595237D02*
X95311961Y-65690475D01*
X95311961Y-65690475D02*
X95216723Y-65738094D01*
X95216723Y-65738094D02*
X95026247Y-65785713D01*
X95026247Y-65785713D02*
X94883390Y-65785713D01*
X94883390Y-65785713D02*
X94692914Y-65738094D01*
X94692914Y-65738094D02*
X94597676Y-65690475D01*
X94597676Y-65690475D02*
X94502438Y-65595237D01*
X94502438Y-65595237D02*
X94454819Y-65452380D01*
X94454819Y-65452380D02*
X94454819Y-65357142D01*
X94454819Y-65357142D02*
X94502438Y-65214285D01*
X94502438Y-65214285D02*
X94550057Y-65166666D01*
X94883390Y-64595237D02*
X94835771Y-64690475D01*
X94835771Y-64690475D02*
X94788152Y-64738094D01*
X94788152Y-64738094D02*
X94692914Y-64785713D01*
X94692914Y-64785713D02*
X94645295Y-64785713D01*
X94645295Y-64785713D02*
X94550057Y-64738094D01*
X94550057Y-64738094D02*
X94502438Y-64690475D01*
X94502438Y-64690475D02*
X94454819Y-64595237D01*
X94454819Y-64595237D02*
X94454819Y-64404761D01*
X94454819Y-64404761D02*
X94502438Y-64309523D01*
X94502438Y-64309523D02*
X94550057Y-64261904D01*
X94550057Y-64261904D02*
X94645295Y-64214285D01*
X94645295Y-64214285D02*
X94692914Y-64214285D01*
X94692914Y-64214285D02*
X94788152Y-64261904D01*
X94788152Y-64261904D02*
X94835771Y-64309523D01*
X94835771Y-64309523D02*
X94883390Y-64404761D01*
X94883390Y-64404761D02*
X94883390Y-64595237D01*
X94883390Y-64595237D02*
X94931009Y-64690475D01*
X94931009Y-64690475D02*
X94978628Y-64738094D01*
X94978628Y-64738094D02*
X95073866Y-64785713D01*
X95073866Y-64785713D02*
X95264342Y-64785713D01*
X95264342Y-64785713D02*
X95359580Y-64738094D01*
X95359580Y-64738094D02*
X95407200Y-64690475D01*
X95407200Y-64690475D02*
X95454819Y-64595237D01*
X95454819Y-64595237D02*
X95454819Y-64404761D01*
X95454819Y-64404761D02*
X95407200Y-64309523D01*
X95407200Y-64309523D02*
X95359580Y-64261904D01*
X95359580Y-64261904D02*
X95264342Y-64214285D01*
X95264342Y-64214285D02*
X95073866Y-64214285D01*
X95073866Y-64214285D02*
X94978628Y-64261904D01*
X94978628Y-64261904D02*
X94931009Y-64309523D01*
X94931009Y-64309523D02*
X94883390Y-64404761D01*
X72849580Y-110676666D02*
X72897200Y-110724285D01*
X72897200Y-110724285D02*
X72944819Y-110867142D01*
X72944819Y-110867142D02*
X72944819Y-110962380D01*
X72944819Y-110962380D02*
X72897200Y-111105237D01*
X72897200Y-111105237D02*
X72801961Y-111200475D01*
X72801961Y-111200475D02*
X72706723Y-111248094D01*
X72706723Y-111248094D02*
X72516247Y-111295713D01*
X72516247Y-111295713D02*
X72373390Y-111295713D01*
X72373390Y-111295713D02*
X72182914Y-111248094D01*
X72182914Y-111248094D02*
X72087676Y-111200475D01*
X72087676Y-111200475D02*
X71992438Y-111105237D01*
X71992438Y-111105237D02*
X71944819Y-110962380D01*
X71944819Y-110962380D02*
X71944819Y-110867142D01*
X71944819Y-110867142D02*
X71992438Y-110724285D01*
X71992438Y-110724285D02*
X72040057Y-110676666D01*
X71944819Y-109771904D02*
X71944819Y-110248094D01*
X71944819Y-110248094D02*
X72421009Y-110295713D01*
X72421009Y-110295713D02*
X72373390Y-110248094D01*
X72373390Y-110248094D02*
X72325771Y-110152856D01*
X72325771Y-110152856D02*
X72325771Y-109914761D01*
X72325771Y-109914761D02*
X72373390Y-109819523D01*
X72373390Y-109819523D02*
X72421009Y-109771904D01*
X72421009Y-109771904D02*
X72516247Y-109724285D01*
X72516247Y-109724285D02*
X72754342Y-109724285D01*
X72754342Y-109724285D02*
X72849580Y-109771904D01*
X72849580Y-109771904D02*
X72897200Y-109819523D01*
X72897200Y-109819523D02*
X72944819Y-109914761D01*
X72944819Y-109914761D02*
X72944819Y-110152856D01*
X72944819Y-110152856D02*
X72897200Y-110248094D01*
X72897200Y-110248094D02*
X72849580Y-110295713D01*
X98333333Y-82859580D02*
X98285714Y-82907200D01*
X98285714Y-82907200D02*
X98142857Y-82954819D01*
X98142857Y-82954819D02*
X98047619Y-82954819D01*
X98047619Y-82954819D02*
X97904762Y-82907200D01*
X97904762Y-82907200D02*
X97809524Y-82811961D01*
X97809524Y-82811961D02*
X97761905Y-82716723D01*
X97761905Y-82716723D02*
X97714286Y-82526247D01*
X97714286Y-82526247D02*
X97714286Y-82383390D01*
X97714286Y-82383390D02*
X97761905Y-82192914D01*
X97761905Y-82192914D02*
X97809524Y-82097676D01*
X97809524Y-82097676D02*
X97904762Y-82002438D01*
X97904762Y-82002438D02*
X98047619Y-81954819D01*
X98047619Y-81954819D02*
X98142857Y-81954819D01*
X98142857Y-81954819D02*
X98285714Y-82002438D01*
X98285714Y-82002438D02*
X98333333Y-82050057D01*
X98714286Y-82050057D02*
X98761905Y-82002438D01*
X98761905Y-82002438D02*
X98857143Y-81954819D01*
X98857143Y-81954819D02*
X99095238Y-81954819D01*
X99095238Y-81954819D02*
X99190476Y-82002438D01*
X99190476Y-82002438D02*
X99238095Y-82050057D01*
X99238095Y-82050057D02*
X99285714Y-82145295D01*
X99285714Y-82145295D02*
X99285714Y-82240533D01*
X99285714Y-82240533D02*
X99238095Y-82383390D01*
X99238095Y-82383390D02*
X98666667Y-82954819D01*
X98666667Y-82954819D02*
X99285714Y-82954819D01*
D11*
X69280000Y-96640000D02*
X69280000Y-102640000D01*
X69280000Y-102640000D02*
X72780000Y-102640000D01*
X72780000Y-93840000D02*
X72780000Y-96640000D01*
X72780000Y-96640000D02*
X69280000Y-96640000D01*
X72780000Y-102640000D02*
X72780000Y-105440000D01*
X72780000Y-105440000D02*
X76885000Y-105440000D01*
X79880000Y-93840000D02*
X72780000Y-93840000D01*
X86980000Y-93840000D02*
X86980000Y-102768000D01*
D12*
X68704000Y-99589000D02*
G75*
G03*
X68704000Y-99589000I-103000J0D01*
G01*
D13*
X122420000Y-67971000D02*
X122420000Y-69229000D01*
X120580000Y-67971000D02*
X120580000Y-69229000D01*
X88300000Y-62240000D02*
X88300000Y-60970000D01*
X89570000Y-62240000D02*
X88300000Y-62240000D01*
X91730000Y-59927071D02*
X91730000Y-59472929D01*
X92490000Y-59927071D02*
X92490000Y-59472929D01*
X94270000Y-59927071D02*
X94270000Y-59472929D01*
X95030000Y-59927071D02*
X95030000Y-59472929D01*
X96810000Y-59927071D02*
X96810000Y-59472929D01*
X97570000Y-59927071D02*
X97570000Y-59472929D01*
X99350000Y-59927071D02*
X99350000Y-59472929D01*
X100110000Y-59927071D02*
X100110000Y-59472929D01*
X101890000Y-59927071D02*
X101890000Y-59472929D01*
X102650000Y-59927071D02*
X102650000Y-59472929D01*
X104430000Y-59927071D02*
X104430000Y-59472929D01*
X105190000Y-59927071D02*
X105190000Y-59472929D01*
X106970000Y-59927071D02*
X106970000Y-59472929D01*
X107730000Y-59927071D02*
X107730000Y-59472929D01*
X109510000Y-59927071D02*
X109510000Y-59472929D01*
X110270000Y-59927071D02*
X110270000Y-59472929D01*
X112050000Y-59927071D02*
X112050000Y-59472929D01*
X112810000Y-59927071D02*
X112810000Y-59472929D01*
X114590000Y-59927071D02*
X114590000Y-59472929D01*
X115350000Y-59927071D02*
X115350000Y-59472929D01*
X117130000Y-59927071D02*
X117130000Y-59472929D01*
X117890000Y-59927071D02*
X117890000Y-59472929D01*
X119670000Y-59927071D02*
X119670000Y-59472929D01*
X120430000Y-59927071D02*
X120430000Y-59472929D01*
X122210000Y-59927071D02*
X122210000Y-59472929D01*
X122970000Y-59927071D02*
X122970000Y-59472929D01*
X124750000Y-59927071D02*
X124750000Y-59472929D01*
X125510000Y-59927071D02*
X125510000Y-59472929D01*
X127290000Y-59927071D02*
X127290000Y-59472929D01*
X128050000Y-59927071D02*
X128050000Y-59472929D01*
X129830000Y-59927071D02*
X129830000Y-59472929D01*
X130590000Y-59927071D02*
X130590000Y-59472929D01*
X132370000Y-59927071D02*
X132370000Y-59472929D01*
X133130000Y-59927071D02*
X133130000Y-59472929D01*
X134910000Y-59927071D02*
X134910000Y-59472929D01*
X135670000Y-59927071D02*
X135670000Y-59472929D01*
X137450000Y-59927071D02*
X137450000Y-59472929D01*
X138210000Y-59927071D02*
X138210000Y-59472929D01*
X139990000Y-59927071D02*
X139990000Y-59472929D01*
X140750000Y-59927071D02*
X140750000Y-59472929D01*
X142530000Y-59927071D02*
X142530000Y-59472929D01*
X143290000Y-59927071D02*
X143290000Y-59472929D01*
X145070000Y-59927071D02*
X145070000Y-59472929D01*
X145830000Y-59927071D02*
X145830000Y-59472929D01*
X147610000Y-59927071D02*
X147610000Y-59472929D01*
X148370000Y-59927071D02*
X148370000Y-59472929D01*
X150150000Y-59927071D02*
X150150000Y-59472929D01*
X150910000Y-59927071D02*
X150910000Y-59472929D01*
X89190000Y-59860000D02*
X89190000Y-59472929D01*
X89950000Y-59860000D02*
X89950000Y-59472929D01*
X89190000Y-57387071D02*
X89190000Y-56990000D01*
X89950000Y-57387071D02*
X89950000Y-56990000D01*
X91730000Y-57387071D02*
X91730000Y-56990000D01*
X92490000Y-57387071D02*
X92490000Y-56990000D01*
X94270000Y-57387071D02*
X94270000Y-56990000D01*
X95030000Y-57387071D02*
X95030000Y-56990000D01*
X96810000Y-57387071D02*
X96810000Y-56990000D01*
X97570000Y-57387071D02*
X97570000Y-56990000D01*
X99350000Y-57387071D02*
X99350000Y-56990000D01*
X100110000Y-57387071D02*
X100110000Y-56990000D01*
X101890000Y-57387071D02*
X101890000Y-56990000D01*
X102650000Y-57387071D02*
X102650000Y-56990000D01*
X104430000Y-57387071D02*
X104430000Y-56990000D01*
X105190000Y-57387071D02*
X105190000Y-56990000D01*
X106970000Y-57387071D02*
X106970000Y-56990000D01*
X107730000Y-57387071D02*
X107730000Y-56990000D01*
X109510000Y-57387071D02*
X109510000Y-56990000D01*
X110270000Y-57387071D02*
X110270000Y-56990000D01*
X112050000Y-57387071D02*
X112050000Y-56990000D01*
X112810000Y-57387071D02*
X112810000Y-56990000D01*
X114590000Y-57387071D02*
X114590000Y-56990000D01*
X115350000Y-57387071D02*
X115350000Y-56990000D01*
X117130000Y-57387071D02*
X117130000Y-56990000D01*
X117890000Y-57387071D02*
X117890000Y-56990000D01*
X119670000Y-57387071D02*
X119670000Y-56990000D01*
X120430000Y-57387071D02*
X120430000Y-56990000D01*
X122210000Y-57387071D02*
X122210000Y-56990000D01*
X122970000Y-57387071D02*
X122970000Y-56990000D01*
X124750000Y-57387071D02*
X124750000Y-56990000D01*
X125510000Y-57387071D02*
X125510000Y-56990000D01*
X127290000Y-57387071D02*
X127290000Y-56990000D01*
X128050000Y-57387071D02*
X128050000Y-56990000D01*
X129830000Y-57387071D02*
X129830000Y-56990000D01*
X130590000Y-57387071D02*
X130590000Y-56990000D01*
X132370000Y-57387071D02*
X132370000Y-56990000D01*
X133130000Y-57387071D02*
X133130000Y-56990000D01*
X134910000Y-57387071D02*
X134910000Y-56990000D01*
X135670000Y-57387071D02*
X135670000Y-56990000D01*
X137450000Y-57387071D02*
X137450000Y-56990000D01*
X138210000Y-57387071D02*
X138210000Y-56990000D01*
X139990000Y-57387071D02*
X139990000Y-56990000D01*
X140750000Y-57387071D02*
X140750000Y-56990000D01*
X142530000Y-57387071D02*
X142530000Y-56990000D01*
X143290000Y-57387071D02*
X143290000Y-56990000D01*
X145070000Y-57387071D02*
X145070000Y-56990000D01*
X145830000Y-57387071D02*
X145830000Y-56990000D01*
X147610000Y-57387071D02*
X147610000Y-56990000D01*
X148370000Y-57387071D02*
X148370000Y-56990000D01*
X150150000Y-57387071D02*
X150150000Y-56990000D01*
X150910000Y-57387071D02*
X150910000Y-56990000D01*
X88240000Y-56990000D02*
X151860000Y-56990000D01*
X90840000Y-56990000D02*
X90840000Y-54330000D01*
X93380000Y-56990000D02*
X93380000Y-54330000D01*
X95920000Y-56990000D02*
X95920000Y-54330000D01*
X98460000Y-56990000D02*
X98460000Y-54330000D01*
X101000000Y-56990000D02*
X101000000Y-54330000D01*
X103540000Y-56990000D02*
X103540000Y-54330000D01*
X106080000Y-56990000D02*
X106080000Y-54330000D01*
X108620000Y-56990000D02*
X108620000Y-54330000D01*
X111160000Y-56990000D02*
X111160000Y-54330000D01*
X113700000Y-56990000D02*
X113700000Y-54330000D01*
X116240000Y-56990000D02*
X116240000Y-54330000D01*
X118780000Y-56990000D02*
X118780000Y-54330000D01*
X121320000Y-56990000D02*
X121320000Y-54330000D01*
X123860000Y-56990000D02*
X123860000Y-54330000D01*
X126400000Y-56990000D02*
X126400000Y-54330000D01*
X128940000Y-56990000D02*
X128940000Y-54330000D01*
X131480000Y-56990000D02*
X131480000Y-54330000D01*
X134020000Y-56990000D02*
X134020000Y-54330000D01*
X136560000Y-56990000D02*
X136560000Y-54330000D01*
X139100000Y-56990000D02*
X139100000Y-54330000D01*
X141640000Y-56990000D02*
X141640000Y-54330000D01*
X144180000Y-56990000D02*
X144180000Y-54330000D01*
X146720000Y-56990000D02*
X146720000Y-54330000D01*
X149260000Y-56990000D02*
X149260000Y-54330000D01*
X151860000Y-56990000D02*
X151860000Y-54330000D01*
X88240000Y-54330000D02*
X88240000Y-56990000D01*
X89190000Y-54330000D02*
X89190000Y-48330000D01*
X89250000Y-54330000D02*
X89250000Y-48330000D01*
X89370000Y-54330000D02*
X89370000Y-48330000D01*
X89490000Y-54330000D02*
X89490000Y-48330000D01*
X89610000Y-54330000D02*
X89610000Y-48330000D01*
X89730000Y-54330000D02*
X89730000Y-48330000D01*
X89850000Y-54330000D02*
X89850000Y-48330000D01*
X91730000Y-54330000D02*
X91730000Y-48330000D01*
X94270000Y-54330000D02*
X94270000Y-48330000D01*
X96810000Y-54330000D02*
X96810000Y-48330000D01*
X99350000Y-54330000D02*
X99350000Y-48330000D01*
X101890000Y-54330000D02*
X101890000Y-48330000D01*
X104430000Y-54330000D02*
X104430000Y-48330000D01*
X106970000Y-54330000D02*
X106970000Y-48330000D01*
X109510000Y-54330000D02*
X109510000Y-48330000D01*
X112050000Y-54330000D02*
X112050000Y-48330000D01*
X114590000Y-54330000D02*
X114590000Y-48330000D01*
X117130000Y-54330000D02*
X117130000Y-48330000D01*
X119670000Y-54330000D02*
X119670000Y-48330000D01*
X122210000Y-54330000D02*
X122210000Y-48330000D01*
X124750000Y-54330000D02*
X124750000Y-48330000D01*
X127290000Y-54330000D02*
X127290000Y-48330000D01*
X129830000Y-54330000D02*
X129830000Y-48330000D01*
X132370000Y-54330000D02*
X132370000Y-48330000D01*
X134910000Y-54330000D02*
X134910000Y-48330000D01*
X137450000Y-54330000D02*
X137450000Y-48330000D01*
X139990000Y-54330000D02*
X139990000Y-48330000D01*
X142530000Y-54330000D02*
X142530000Y-48330000D01*
X145070000Y-54330000D02*
X145070000Y-48330000D01*
X147610000Y-54330000D02*
X147610000Y-48330000D01*
X150150000Y-54330000D02*
X150150000Y-48330000D01*
X151860000Y-54330000D02*
X88240000Y-54330000D01*
X89190000Y-48330000D02*
X89950000Y-48330000D01*
X89950000Y-48330000D02*
X89950000Y-54330000D01*
X91730000Y-48330000D02*
X92490000Y-48330000D01*
X92490000Y-48330000D02*
X92490000Y-54330000D01*
X94270000Y-48330000D02*
X95030000Y-48330000D01*
X95030000Y-48330000D02*
X95030000Y-54330000D01*
X96810000Y-48330000D02*
X97570000Y-48330000D01*
X97570000Y-48330000D02*
X97570000Y-54330000D01*
X99350000Y-48330000D02*
X100110000Y-48330000D01*
X100110000Y-48330000D02*
X100110000Y-54330000D01*
X101890000Y-48330000D02*
X102650000Y-48330000D01*
X102650000Y-48330000D02*
X102650000Y-54330000D01*
X104430000Y-48330000D02*
X105190000Y-48330000D01*
X105190000Y-48330000D02*
X105190000Y-54330000D01*
X106970000Y-48330000D02*
X107730000Y-48330000D01*
X107730000Y-48330000D02*
X107730000Y-54330000D01*
X109510000Y-48330000D02*
X110270000Y-48330000D01*
X110270000Y-48330000D02*
X110270000Y-54330000D01*
X112050000Y-48330000D02*
X112810000Y-48330000D01*
X112810000Y-48330000D02*
X112810000Y-54330000D01*
X114590000Y-48330000D02*
X115350000Y-48330000D01*
X115350000Y-48330000D02*
X115350000Y-54330000D01*
X117130000Y-48330000D02*
X117890000Y-48330000D01*
X117890000Y-48330000D02*
X117890000Y-54330000D01*
X119670000Y-48330000D02*
X120430000Y-48330000D01*
X120430000Y-48330000D02*
X120430000Y-54330000D01*
X122210000Y-48330000D02*
X122970000Y-48330000D01*
X122970000Y-48330000D02*
X122970000Y-54330000D01*
X124750000Y-48330000D02*
X125510000Y-48330000D01*
X125510000Y-48330000D02*
X125510000Y-54330000D01*
X127290000Y-48330000D02*
X128050000Y-48330000D01*
X128050000Y-48330000D02*
X128050000Y-54330000D01*
X129830000Y-48330000D02*
X130590000Y-48330000D01*
X130590000Y-48330000D02*
X130590000Y-54330000D01*
X132370000Y-48330000D02*
X133130000Y-48330000D01*
X133130000Y-48330000D02*
X133130000Y-54330000D01*
X134910000Y-48330000D02*
X135670000Y-48330000D01*
X135670000Y-48330000D02*
X135670000Y-54330000D01*
X137450000Y-48330000D02*
X138210000Y-48330000D01*
X138210000Y-48330000D02*
X138210000Y-54330000D01*
X139990000Y-48330000D02*
X140750000Y-48330000D01*
X140750000Y-48330000D02*
X140750000Y-54330000D01*
X142530000Y-48330000D02*
X143290000Y-48330000D01*
X143290000Y-48330000D02*
X143290000Y-54330000D01*
X145070000Y-48330000D02*
X145830000Y-48330000D01*
X145830000Y-48330000D02*
X145830000Y-54330000D01*
X147610000Y-48330000D02*
X148370000Y-48330000D01*
X148370000Y-48330000D02*
X148370000Y-54330000D01*
X150150000Y-48330000D02*
X150910000Y-48330000D01*
X150910000Y-48330000D02*
X150910000Y-54330000D01*
X74810000Y-76818800D02*
X92830000Y-76818800D01*
X92830000Y-76818800D02*
X92830000Y-66538800D01*
X74870000Y-74328800D02*
X92770000Y-74328800D01*
X92770000Y-74328800D02*
X92770000Y-69028800D01*
X74870000Y-72678800D02*
X74870000Y-74328800D01*
X74870000Y-69028800D02*
X74870000Y-70678800D01*
X92770000Y-69028800D02*
X74870000Y-69028800D01*
X74810000Y-66538800D02*
X74810000Y-76818800D01*
X92830000Y-66538800D02*
X74810000Y-66538800D01*
X74870000Y-72678800D02*
G75*
G03*
X74870000Y-70678800I0J1000000D01*
G01*
X100270000Y-99170000D02*
X151190000Y-99170000D01*
X151190000Y-99170000D02*
X151190000Y-86250000D01*
X100270000Y-93710000D02*
X100270000Y-99170000D01*
X100270000Y-86250000D02*
X100270000Y-91710000D01*
X151190000Y-86250000D02*
X100270000Y-86250000D01*
X100270000Y-93710000D02*
G75*
G03*
X100270000Y-91710000I0J1000000D01*
G01*
X148465000Y-76818800D02*
X166485000Y-76818800D01*
X166485000Y-76818800D02*
X166485000Y-66538800D01*
X148525000Y-74328800D02*
X166425000Y-74328800D01*
X166425000Y-74328800D02*
X166425000Y-69028800D01*
X148525000Y-72678800D02*
X148525000Y-74328800D01*
X148525000Y-69028800D02*
X148525000Y-70678800D01*
X166425000Y-69028800D02*
X148525000Y-69028800D01*
X148465000Y-66538800D02*
X148465000Y-76818800D01*
X166485000Y-66538800D02*
X148465000Y-66538800D01*
X148525000Y-72678800D02*
G75*
G03*
X148525000Y-70678800I0J1000000D01*
G01*
X96400000Y-76818800D02*
X114420000Y-76818800D01*
X114420000Y-76818800D02*
X114420000Y-66538800D01*
X96460000Y-74328800D02*
X114360000Y-74328800D01*
X114360000Y-74328800D02*
X114360000Y-69028800D01*
X96460000Y-72678800D02*
X96460000Y-74328800D01*
X96460000Y-69028800D02*
X96460000Y-70678800D01*
X114360000Y-69028800D02*
X96460000Y-69028800D01*
X96400000Y-66538800D02*
X96400000Y-76818800D01*
X114420000Y-66538800D02*
X96400000Y-66538800D01*
X96460000Y-72678800D02*
G75*
G03*
X96460000Y-70678800I0J1000000D01*
G01*
X100270000Y-119490000D02*
X151190000Y-119490000D01*
X151190000Y-119490000D02*
X151190000Y-106570000D01*
X100270000Y-114030000D02*
X100270000Y-119490000D01*
X100270000Y-106570000D02*
X100270000Y-112030000D01*
X151190000Y-106570000D02*
X100270000Y-106570000D01*
X100270000Y-114030000D02*
G75*
G03*
X100270000Y-112030000I0J1000000D01*
G01*
X83590000Y-115570000D02*
X84360000Y-115570000D01*
X84360000Y-114200000D02*
X84360000Y-116940000D01*
X84360000Y-116940000D02*
X90900000Y-116940000D01*
X90900000Y-114200000D02*
X84360000Y-114200000D01*
X90900000Y-116940000D02*
X90900000Y-114200000D01*
X91670000Y-115570000D02*
X90900000Y-115570000D01*
X74220000Y-67971000D02*
X74220000Y-69229000D01*
X72380000Y-67971000D02*
X72380000Y-69229000D01*
X83590000Y-86360000D02*
X84360000Y-86360000D01*
X84360000Y-84990000D02*
X84360000Y-87730000D01*
X84360000Y-87730000D02*
X90900000Y-87730000D01*
X90900000Y-84990000D02*
X84360000Y-84990000D01*
X90900000Y-87730000D02*
X90900000Y-84990000D01*
X91670000Y-86360000D02*
X90900000Y-86360000D01*
X123070000Y-76818800D02*
X143630000Y-76818800D01*
X143630000Y-76818800D02*
X143630000Y-66538800D01*
X123130000Y-74328800D02*
X143570000Y-74328800D01*
X143570000Y-74328800D02*
X143570000Y-69028800D01*
X123130000Y-72678800D02*
X123130000Y-74328800D01*
X123130000Y-69028800D02*
X123130000Y-70678800D01*
X143570000Y-69028800D02*
X123130000Y-69028800D01*
X123070000Y-66538800D02*
X123070000Y-76818800D01*
X143630000Y-66538800D02*
X123070000Y-66538800D01*
X123130000Y-72678800D02*
G75*
G03*
X123130000Y-70678800I0J1000000D01*
G01*
X140935000Y-82130000D02*
X140935000Y-80800000D01*
X142265000Y-82130000D02*
X140935000Y-82130000D01*
X143535000Y-82130000D02*
X148675000Y-82130000D01*
X143535000Y-82130000D02*
X143535000Y-79470000D01*
X148675000Y-82130000D02*
X148675000Y-79470000D01*
X143535000Y-79470000D02*
X148675000Y-79470000D01*
X102381000Y-101980000D02*
X103639000Y-101980000D01*
X102381000Y-103820000D02*
X103639000Y-103820000D01*
X91670000Y-90170000D02*
X90900000Y-90170000D01*
X90900000Y-91540000D02*
X90900000Y-88800000D01*
X90900000Y-88800000D02*
X84360000Y-88800000D01*
X84360000Y-91540000D02*
X90900000Y-91540000D01*
X84360000Y-88800000D02*
X84360000Y-91540000D01*
X83590000Y-90170000D02*
X84360000Y-90170000D01*
X147820000Y-67971000D02*
X147820000Y-69229000D01*
X145980000Y-67971000D02*
X145980000Y-69229000D01*
X74725000Y-91724775D02*
X74725000Y-91224775D01*
X74475000Y-91474775D02*
X74975000Y-91474775D01*
X73620000Y-88920000D02*
X78780000Y-88920000D01*
X73620000Y-88880000D02*
X78780000Y-88880000D01*
X73621000Y-88840000D02*
X78779000Y-88840000D01*
X73622000Y-88800000D02*
X78778000Y-88800000D01*
X73624000Y-88760000D02*
X78776000Y-88760000D01*
X73627000Y-88720000D02*
X78773000Y-88720000D01*
X73631000Y-88680000D02*
X75160000Y-88680000D01*
X77240000Y-88680000D02*
X78769000Y-88680000D01*
X73635000Y-88640000D02*
X75160000Y-88640000D01*
X77240000Y-88640000D02*
X78765000Y-88640000D01*
X73639000Y-88600000D02*
X75160000Y-88600000D01*
X77240000Y-88600000D02*
X78761000Y-88600000D01*
X73644000Y-88560000D02*
X75160000Y-88560000D01*
X77240000Y-88560000D02*
X78756000Y-88560000D01*
X73650000Y-88520000D02*
X75160000Y-88520000D01*
X77240000Y-88520000D02*
X78750000Y-88520000D01*
X73657000Y-88480000D02*
X75160000Y-88480000D01*
X77240000Y-88480000D02*
X78743000Y-88480000D01*
X73664000Y-88440000D02*
X75160000Y-88440000D01*
X77240000Y-88440000D02*
X78736000Y-88440000D01*
X73672000Y-88400000D02*
X75160000Y-88400000D01*
X77240000Y-88400000D02*
X78728000Y-88400000D01*
X73680000Y-88360000D02*
X75160000Y-88360000D01*
X77240000Y-88360000D02*
X78720000Y-88360000D01*
X73689000Y-88320000D02*
X75160000Y-88320000D01*
X77240000Y-88320000D02*
X78711000Y-88320000D01*
X73699000Y-88280000D02*
X75160000Y-88280000D01*
X77240000Y-88280000D02*
X78701000Y-88280000D01*
X73709000Y-88240000D02*
X75160000Y-88240000D01*
X77240000Y-88240000D02*
X78691000Y-88240000D01*
X73720000Y-88199000D02*
X75160000Y-88199000D01*
X77240000Y-88199000D02*
X78680000Y-88199000D01*
X73732000Y-88159000D02*
X75160000Y-88159000D01*
X77240000Y-88159000D02*
X78668000Y-88159000D01*
X73745000Y-88119000D02*
X75160000Y-88119000D01*
X77240000Y-88119000D02*
X78655000Y-88119000D01*
X73758000Y-88079000D02*
X75160000Y-88079000D01*
X77240000Y-88079000D02*
X78642000Y-88079000D01*
X73772000Y-88039000D02*
X75160000Y-88039000D01*
X77240000Y-88039000D02*
X78628000Y-88039000D01*
X73786000Y-87999000D02*
X75160000Y-87999000D01*
X77240000Y-87999000D02*
X78614000Y-87999000D01*
X73802000Y-87959000D02*
X75160000Y-87959000D01*
X77240000Y-87959000D02*
X78598000Y-87959000D01*
X73818000Y-87919000D02*
X75160000Y-87919000D01*
X77240000Y-87919000D02*
X78582000Y-87919000D01*
X73835000Y-87879000D02*
X75160000Y-87879000D01*
X77240000Y-87879000D02*
X78565000Y-87879000D01*
X73852000Y-87839000D02*
X75160000Y-87839000D01*
X77240000Y-87839000D02*
X78548000Y-87839000D01*
X73871000Y-87799000D02*
X75160000Y-87799000D01*
X77240000Y-87799000D02*
X78529000Y-87799000D01*
X73890000Y-87759000D02*
X75160000Y-87759000D01*
X77240000Y-87759000D02*
X78510000Y-87759000D01*
X73910000Y-87719000D02*
X75160000Y-87719000D01*
X77240000Y-87719000D02*
X78490000Y-87719000D01*
X73932000Y-87679000D02*
X75160000Y-87679000D01*
X77240000Y-87679000D02*
X78468000Y-87679000D01*
X73953000Y-87639000D02*
X75160000Y-87639000D01*
X77240000Y-87639000D02*
X78447000Y-87639000D01*
X73976000Y-87599000D02*
X75160000Y-87599000D01*
X77240000Y-87599000D02*
X78424000Y-87599000D01*
X74000000Y-87559000D02*
X75160000Y-87559000D01*
X77240000Y-87559000D02*
X78400000Y-87559000D01*
X74025000Y-87519000D02*
X75160000Y-87519000D01*
X77240000Y-87519000D02*
X78375000Y-87519000D01*
X74051000Y-87479000D02*
X75160000Y-87479000D01*
X77240000Y-87479000D02*
X78349000Y-87479000D01*
X74078000Y-87439000D02*
X75160000Y-87439000D01*
X77240000Y-87439000D02*
X78322000Y-87439000D01*
X74105000Y-87399000D02*
X75160000Y-87399000D01*
X77240000Y-87399000D02*
X78295000Y-87399000D01*
X74135000Y-87359000D02*
X75160000Y-87359000D01*
X77240000Y-87359000D02*
X78265000Y-87359000D01*
X74165000Y-87319000D02*
X75160000Y-87319000D01*
X77240000Y-87319000D02*
X78235000Y-87319000D01*
X74196000Y-87279000D02*
X75160000Y-87279000D01*
X77240000Y-87279000D02*
X78204000Y-87279000D01*
X74229000Y-87239000D02*
X75160000Y-87239000D01*
X77240000Y-87239000D02*
X78171000Y-87239000D01*
X74263000Y-87199000D02*
X75160000Y-87199000D01*
X77240000Y-87199000D02*
X78137000Y-87199000D01*
X74299000Y-87159000D02*
X75160000Y-87159000D01*
X77240000Y-87159000D02*
X78101000Y-87159000D01*
X74336000Y-87119000D02*
X75160000Y-87119000D01*
X77240000Y-87119000D02*
X78064000Y-87119000D01*
X74374000Y-87079000D02*
X75160000Y-87079000D01*
X77240000Y-87079000D02*
X78026000Y-87079000D01*
X74415000Y-87039000D02*
X75160000Y-87039000D01*
X77240000Y-87039000D02*
X77985000Y-87039000D01*
X74457000Y-86999000D02*
X75160000Y-86999000D01*
X77240000Y-86999000D02*
X77943000Y-86999000D01*
X74501000Y-86959000D02*
X75160000Y-86959000D01*
X77240000Y-86959000D02*
X77899000Y-86959000D01*
X74547000Y-86919000D02*
X75160000Y-86919000D01*
X77240000Y-86919000D02*
X77853000Y-86919000D01*
X74595000Y-86879000D02*
X75160000Y-86879000D01*
X77240000Y-86879000D02*
X77805000Y-86879000D01*
X74646000Y-86839000D02*
X75160000Y-86839000D01*
X77240000Y-86839000D02*
X77754000Y-86839000D01*
X74700000Y-86799000D02*
X75160000Y-86799000D01*
X77240000Y-86799000D02*
X77700000Y-86799000D01*
X74757000Y-86759000D02*
X75160000Y-86759000D01*
X77240000Y-86759000D02*
X77643000Y-86759000D01*
X74817000Y-86719000D02*
X75160000Y-86719000D01*
X77240000Y-86719000D02*
X77583000Y-86719000D01*
X74881000Y-86679000D02*
X75160000Y-86679000D01*
X77240000Y-86679000D02*
X77519000Y-86679000D01*
X74949000Y-86639000D02*
X75160000Y-86639000D01*
X77240000Y-86639000D02*
X77451000Y-86639000D01*
X75022000Y-86599000D02*
X77378000Y-86599000D01*
X75102000Y-86559000D02*
X77298000Y-86559000D01*
X75189000Y-86519000D02*
X77211000Y-86519000D01*
X75285000Y-86479000D02*
X77115000Y-86479000D01*
X75395000Y-86439000D02*
X77005000Y-86439000D01*
X75523000Y-86399000D02*
X76877000Y-86399000D01*
X75682000Y-86359000D02*
X76718000Y-86359000D01*
X75916000Y-86319000D02*
X76484000Y-86319000D01*
X78820000Y-88920000D02*
G75*
G03*
X78820000Y-88920000I-2620000J0D01*
G01*
X162930000Y-90250000D02*
X164260000Y-90250000D01*
X162930000Y-91580000D02*
X162930000Y-90250000D01*
X162930000Y-92850000D02*
X162930000Y-108150000D01*
X162930000Y-92850000D02*
X165530000Y-92850000D01*
X162930000Y-108150000D02*
X168130000Y-108150000D01*
X165530000Y-90250000D02*
X168130000Y-90250000D01*
X165530000Y-92850000D02*
X165530000Y-90250000D01*
X168130000Y-90250000D02*
X168130000Y-108150000D01*
X91670000Y-111760000D02*
X90900000Y-111760000D01*
X90900000Y-113130000D02*
X90900000Y-110390000D01*
X90900000Y-110390000D02*
X84360000Y-110390000D01*
X84360000Y-113130000D02*
X90900000Y-113130000D01*
X84360000Y-110390000D02*
X84360000Y-113130000D01*
X83590000Y-111760000D02*
X84360000Y-111760000D01*
X152380000Y-82130000D02*
X152380000Y-80800000D01*
X153710000Y-82130000D02*
X152380000Y-82130000D01*
X154980000Y-82130000D02*
X160120000Y-82130000D01*
X154980000Y-82130000D02*
X154980000Y-79470000D01*
X160120000Y-82130000D02*
X160120000Y-79470000D01*
X154980000Y-79470000D02*
X160120000Y-79470000D01*
X95720000Y-67971000D02*
X95720000Y-69229000D01*
X93880000Y-67971000D02*
X93880000Y-69229000D01*
X74765000Y-113314775D02*
X74765000Y-112814775D01*
X74515000Y-113064775D02*
X75015000Y-113064775D01*
X73660000Y-110510000D02*
X78820000Y-110510000D01*
X73660000Y-110470000D02*
X78820000Y-110470000D01*
X73661000Y-110430000D02*
X78819000Y-110430000D01*
X73662000Y-110390000D02*
X78818000Y-110390000D01*
X73664000Y-110350000D02*
X78816000Y-110350000D01*
X73667000Y-110310000D02*
X78813000Y-110310000D01*
X73671000Y-110270000D02*
X75200000Y-110270000D01*
X77280000Y-110270000D02*
X78809000Y-110270000D01*
X73675000Y-110230000D02*
X75200000Y-110230000D01*
X77280000Y-110230000D02*
X78805000Y-110230000D01*
X73679000Y-110190000D02*
X75200000Y-110190000D01*
X77280000Y-110190000D02*
X78801000Y-110190000D01*
X73684000Y-110150000D02*
X75200000Y-110150000D01*
X77280000Y-110150000D02*
X78796000Y-110150000D01*
X73690000Y-110110000D02*
X75200000Y-110110000D01*
X77280000Y-110110000D02*
X78790000Y-110110000D01*
X73697000Y-110070000D02*
X75200000Y-110070000D01*
X77280000Y-110070000D02*
X78783000Y-110070000D01*
X73704000Y-110030000D02*
X75200000Y-110030000D01*
X77280000Y-110030000D02*
X78776000Y-110030000D01*
X73712000Y-109990000D02*
X75200000Y-109990000D01*
X77280000Y-109990000D02*
X78768000Y-109990000D01*
X73720000Y-109950000D02*
X75200000Y-109950000D01*
X77280000Y-109950000D02*
X78760000Y-109950000D01*
X73729000Y-109910000D02*
X75200000Y-109910000D01*
X77280000Y-109910000D02*
X78751000Y-109910000D01*
X73739000Y-109870000D02*
X75200000Y-109870000D01*
X77280000Y-109870000D02*
X78741000Y-109870000D01*
X73749000Y-109830000D02*
X75200000Y-109830000D01*
X77280000Y-109830000D02*
X78731000Y-109830000D01*
X73760000Y-109789000D02*
X75200000Y-109789000D01*
X77280000Y-109789000D02*
X78720000Y-109789000D01*
X73772000Y-109749000D02*
X75200000Y-109749000D01*
X77280000Y-109749000D02*
X78708000Y-109749000D01*
X73785000Y-109709000D02*
X75200000Y-109709000D01*
X77280000Y-109709000D02*
X78695000Y-109709000D01*
X73798000Y-109669000D02*
X75200000Y-109669000D01*
X77280000Y-109669000D02*
X78682000Y-109669000D01*
X73812000Y-109629000D02*
X75200000Y-109629000D01*
X77280000Y-109629000D02*
X78668000Y-109629000D01*
X73826000Y-109589000D02*
X75200000Y-109589000D01*
X77280000Y-109589000D02*
X78654000Y-109589000D01*
X73842000Y-109549000D02*
X75200000Y-109549000D01*
X77280000Y-109549000D02*
X78638000Y-109549000D01*
X73858000Y-109509000D02*
X75200000Y-109509000D01*
X77280000Y-109509000D02*
X78622000Y-109509000D01*
X73875000Y-109469000D02*
X75200000Y-109469000D01*
X77280000Y-109469000D02*
X78605000Y-109469000D01*
X73892000Y-109429000D02*
X75200000Y-109429000D01*
X77280000Y-109429000D02*
X78588000Y-109429000D01*
X73911000Y-109389000D02*
X75200000Y-109389000D01*
X77280000Y-109389000D02*
X78569000Y-109389000D01*
X73930000Y-109349000D02*
X75200000Y-109349000D01*
X77280000Y-109349000D02*
X78550000Y-109349000D01*
X73950000Y-109309000D02*
X75200000Y-109309000D01*
X77280000Y-109309000D02*
X78530000Y-109309000D01*
X73972000Y-109269000D02*
X75200000Y-109269000D01*
X77280000Y-109269000D02*
X78508000Y-109269000D01*
X73993000Y-109229000D02*
X75200000Y-109229000D01*
X77280000Y-109229000D02*
X78487000Y-109229000D01*
X74016000Y-109189000D02*
X75200000Y-109189000D01*
X77280000Y-109189000D02*
X78464000Y-109189000D01*
X74040000Y-109149000D02*
X75200000Y-109149000D01*
X77280000Y-109149000D02*
X78440000Y-109149000D01*
X74065000Y-109109000D02*
X75200000Y-109109000D01*
X77280000Y-109109000D02*
X78415000Y-109109000D01*
X74091000Y-109069000D02*
X75200000Y-109069000D01*
X77280000Y-109069000D02*
X78389000Y-109069000D01*
X74118000Y-109029000D02*
X75200000Y-109029000D01*
X77280000Y-109029000D02*
X78362000Y-109029000D01*
X74145000Y-108989000D02*
X75200000Y-108989000D01*
X77280000Y-108989000D02*
X78335000Y-108989000D01*
X74175000Y-108949000D02*
X75200000Y-108949000D01*
X77280000Y-108949000D02*
X78305000Y-108949000D01*
X74205000Y-108909000D02*
X75200000Y-108909000D01*
X77280000Y-108909000D02*
X78275000Y-108909000D01*
X74236000Y-108869000D02*
X75200000Y-108869000D01*
X77280000Y-108869000D02*
X78244000Y-108869000D01*
X74269000Y-108829000D02*
X75200000Y-108829000D01*
X77280000Y-108829000D02*
X78211000Y-108829000D01*
X74303000Y-108789000D02*
X75200000Y-108789000D01*
X77280000Y-108789000D02*
X78177000Y-108789000D01*
X74339000Y-108749000D02*
X75200000Y-108749000D01*
X77280000Y-108749000D02*
X78141000Y-108749000D01*
X74376000Y-108709000D02*
X75200000Y-108709000D01*
X77280000Y-108709000D02*
X78104000Y-108709000D01*
X74414000Y-108669000D02*
X75200000Y-108669000D01*
X77280000Y-108669000D02*
X78066000Y-108669000D01*
X74455000Y-108629000D02*
X75200000Y-108629000D01*
X77280000Y-108629000D02*
X78025000Y-108629000D01*
X74497000Y-108589000D02*
X75200000Y-108589000D01*
X77280000Y-108589000D02*
X77983000Y-108589000D01*
X74541000Y-108549000D02*
X75200000Y-108549000D01*
X77280000Y-108549000D02*
X77939000Y-108549000D01*
X74587000Y-108509000D02*
X75200000Y-108509000D01*
X77280000Y-108509000D02*
X77893000Y-108509000D01*
X74635000Y-108469000D02*
X75200000Y-108469000D01*
X77280000Y-108469000D02*
X77845000Y-108469000D01*
X74686000Y-108429000D02*
X75200000Y-108429000D01*
X77280000Y-108429000D02*
X77794000Y-108429000D01*
X74740000Y-108389000D02*
X75200000Y-108389000D01*
X77280000Y-108389000D02*
X77740000Y-108389000D01*
X74797000Y-108349000D02*
X75200000Y-108349000D01*
X77280000Y-108349000D02*
X77683000Y-108349000D01*
X74857000Y-108309000D02*
X75200000Y-108309000D01*
X77280000Y-108309000D02*
X77623000Y-108309000D01*
X74921000Y-108269000D02*
X75200000Y-108269000D01*
X77280000Y-108269000D02*
X77559000Y-108269000D01*
X74989000Y-108229000D02*
X75200000Y-108229000D01*
X77280000Y-108229000D02*
X77491000Y-108229000D01*
X75062000Y-108189000D02*
X77418000Y-108189000D01*
X75142000Y-108149000D02*
X77338000Y-108149000D01*
X75229000Y-108109000D02*
X77251000Y-108109000D01*
X75325000Y-108069000D02*
X77155000Y-108069000D01*
X75435000Y-108029000D02*
X77045000Y-108029000D01*
X75563000Y-107989000D02*
X76917000Y-107989000D01*
X75722000Y-107949000D02*
X76758000Y-107949000D01*
X75956000Y-107909000D02*
X76524000Y-107909000D01*
X78860000Y-110510000D02*
G75*
G03*
X78860000Y-110510000I-2620000J0D01*
G01*
X102281000Y-81580000D02*
X103539000Y-81580000D01*
X102281000Y-83420000D02*
X103539000Y-83420000D01*
M02*
