M48
; DRILL file {KiCad 7.0.9} date Wed Jan  3 11:25:03 2024
; FORMAT={-:-/ absolute / metric / decimal}
; #@! TF.CreationDate,2024-01-03T11:25:03+09:00
; #@! TF.GenerationSoftware,Kicad,Pcbnew,7.0.9
; #@! TF.FileFunction,MixedPlating,1,2
FMAT,2
METRIC
; #@! TA.AperFunction,Plated,PTH,ViaDrill
T1C0.400
; #@! TA.AperFunction,Plated,PTH,ComponentDrill
T2C0.800
; #@! TA.AperFunction,Plated,PTH,ComponentDrill
T3C1.000
; #@! TA.AperFunction,Plated,PTH,ComponentDrill
T4C1.200
; #@! TA.AperFunction,NonPlated,NPTH,ComponentDrill
T5C3.200
%
G90
G05
T1
X99.155Y-87.879
X103.0Y-90.0
X120.767Y-79.91
X124.445Y-78.871
X124.667Y-77.844
X153.5Y-90.5
T2
X73.3Y-67.35
X73.3Y-69.85
X76.2Y-67.869
X76.2Y-75.489
X76.2Y-87.67
X76.2Y-90.17
X76.24Y-109.26
X76.24Y-111.76
X78.74Y-67.869
X78.74Y-75.489
X81.28Y-67.869
X81.28Y-75.489
X82.55Y-86.36
X82.55Y-90.17
X82.55Y-111.76
X82.55Y-115.57
X83.82Y-67.869
X83.82Y-75.489
X86.36Y-67.869
X86.36Y-75.489
X88.9Y-67.869
X88.9Y-75.489
X91.44Y-67.869
X91.44Y-75.489
X92.71Y-86.36
X92.71Y-90.17
X92.71Y-111.76
X92.71Y-115.57
X94.8Y-67.35
X94.8Y-69.85
X97.79Y-67.869
X97.79Y-75.489
X100.33Y-67.869
X100.33Y-75.489
X101.6Y-85.09
X101.6Y-100.33
X101.6Y-105.41
X101.6Y-120.65
X101.66Y-82.5
X101.76Y-102.9
X102.87Y-67.869
X102.87Y-75.489
X104.14Y-85.09
X104.14Y-100.33
X104.14Y-105.41
X104.14Y-120.65
X104.16Y-82.5
X104.26Y-102.9
X105.41Y-67.869
X105.41Y-75.489
X106.68Y-85.09
X106.68Y-100.33
X106.68Y-105.41
X106.68Y-120.65
X107.95Y-67.869
X107.95Y-75.489
X109.22Y-85.09
X109.22Y-100.33
X109.22Y-105.41
X109.22Y-120.65
X110.49Y-67.869
X110.49Y-75.489
X111.76Y-85.09
X111.76Y-100.33
X111.76Y-105.41
X111.76Y-120.65
X113.03Y-67.869
X113.03Y-75.489
X114.3Y-85.09
X114.3Y-100.33
X114.3Y-105.41
X114.3Y-120.65
X116.84Y-85.09
X116.84Y-100.33
X116.84Y-105.41
X116.84Y-120.65
X119.38Y-85.09
X119.38Y-100.33
X119.38Y-105.41
X119.38Y-120.65
X121.5Y-67.35
X121.5Y-69.85
X121.92Y-85.09
X121.92Y-100.33
X121.92Y-105.41
X121.92Y-120.65
X124.46Y-67.869
X124.46Y-75.489
X124.46Y-85.09
X124.46Y-100.33
X124.46Y-105.41
X124.46Y-120.65
X127.0Y-67.869
X127.0Y-75.489
X127.0Y-85.09
X127.0Y-100.33
X127.0Y-105.41
X127.0Y-120.65
X129.54Y-67.869
X129.54Y-75.489
X129.54Y-85.09
X129.54Y-100.33
X129.54Y-105.41
X129.54Y-120.65
X132.08Y-67.869
X132.08Y-75.489
X132.08Y-85.09
X132.08Y-100.33
X132.08Y-105.41
X132.08Y-120.65
X134.62Y-67.869
X134.62Y-75.489
X134.62Y-85.09
X134.62Y-100.33
X134.62Y-105.41
X134.62Y-120.65
X137.16Y-67.869
X137.16Y-75.489
X137.16Y-85.09
X137.16Y-100.33
X137.16Y-105.41
X137.16Y-120.65
X139.7Y-67.869
X139.7Y-75.489
X139.7Y-85.09
X139.7Y-100.33
X139.7Y-105.41
X139.7Y-120.65
X142.24Y-67.869
X142.24Y-75.489
X142.24Y-85.09
X142.24Y-100.33
X142.24Y-105.41
X142.24Y-120.65
X144.78Y-85.09
X144.78Y-100.33
X144.78Y-105.41
X144.78Y-120.65
X146.9Y-67.35
X146.9Y-69.85
X147.32Y-85.09
X147.32Y-100.33
X147.32Y-105.41
X147.32Y-120.65
X149.855Y-67.869
X149.855Y-75.489
X149.86Y-85.09
X149.86Y-100.33
X149.86Y-105.41
X149.86Y-120.65
X152.395Y-67.869
X152.395Y-75.489
X154.935Y-67.869
X154.935Y-75.489
X157.475Y-67.869
X157.475Y-75.489
X160.015Y-67.869
X160.015Y-75.489
X162.555Y-67.869
X162.555Y-75.489
X165.095Y-67.869
X165.095Y-75.489
T3
X89.57Y-58.43
X89.57Y-60.97
X92.11Y-58.43
X92.11Y-60.97
X94.65Y-58.43
X94.65Y-60.97
X97.19Y-58.43
X97.19Y-60.97
X99.73Y-58.43
X99.73Y-60.97
X102.27Y-58.43
X102.27Y-60.97
X104.81Y-58.43
X104.81Y-60.97
X107.35Y-58.43
X107.35Y-60.97
X109.89Y-58.43
X109.89Y-60.97
X112.43Y-58.43
X112.43Y-60.97
X114.97Y-58.43
X114.97Y-60.97
X117.51Y-58.43
X117.51Y-60.97
X120.05Y-58.43
X120.05Y-60.97
X122.59Y-58.43
X122.59Y-60.97
X125.13Y-58.43
X125.13Y-60.97
X127.67Y-58.43
X127.67Y-60.97
X130.21Y-58.43
X130.21Y-60.97
X132.75Y-58.43
X132.75Y-60.97
X135.29Y-58.43
X135.29Y-60.97
X137.83Y-58.43
X137.83Y-60.97
X140.37Y-58.43
X140.37Y-60.97
X142.265Y-80.8
X142.91Y-58.43
X142.91Y-60.97
X144.805Y-80.8
X145.45Y-58.43
X145.45Y-60.97
X147.345Y-80.8
X147.99Y-58.43
X147.99Y-60.97
X150.53Y-58.43
X150.53Y-60.97
X153.71Y-80.8
X156.25Y-80.8
X158.79Y-80.8
X164.26Y-91.58
X164.26Y-94.12
X164.26Y-96.66
X164.26Y-99.2
X164.26Y-101.74
X164.26Y-104.28
X164.26Y-106.82
X166.8Y-91.58
X166.8Y-94.12
X166.8Y-96.66
X166.8Y-99.2
X166.8Y-101.74
X166.8Y-104.28
X166.8Y-106.82
T5
X75.5Y-53.5
X75.5Y-119.5
X164.5Y-53.5
X164.5Y-119.5
T4
G00X74.48Y-100.04
M15
G01X74.48Y-99.24
M16
G05
G00X77.58Y-104.14
M15
G01X78.38Y-104.14
M16
G05
G00X80.88Y-96.74
M15
G01X81.68Y-96.74
M16
G05
G00X82.58Y-94.24
M15
G01X83.38Y-94.24
M16
G05
G00X85.78Y-104.34
M15
G01X85.78Y-103.54
M16
G05
T0
M30
